<svg width="167" height="167" viewBox="0 0 167 167" fill="none" xmlns="http://www.w3.org/2000/svg">
<g id="Frame">
<g id="SVGRepo_iconCarrier">
<path id="Vector" fill-rule="evenodd" clip-rule="evenodd" d="M35.4177 24.3837C34.8326 24.9688 34.854 25.4471 35.5338 26.9841C37.242 30.8468 40.875 42.9632 41.1212 45.6186C41.3283 47.852 41.6453 48.3327 42.8519 48.2445C45.0967 48.0801 44.8279 44.9435 41.7577 35.472C41.0859 33.3997 40.5678 31.6088 40.6067 31.4924C40.6454 31.3761 43.0878 33.1079 46.0341 35.3408C55.9837 42.8814 57.7685 43.8537 69.2636 47.9941C79.7884 51.785 85.2668 54.5041 88.9619 57.771C90.0856 58.7644 92.2632 61.4428 92.0889 61.6173C92.0411 61.6651 90.3935 60.9145 88.4277 59.9496C67.0635 49.4632 49.6064 51.3396 40.4682 65.1049C35.5568 72.5034 38.4131 79.6254 48.2635 84.5414C55.8512 88.3283 69.0152 89.7487 78.5959 87.8143C89.8227 85.5474 96.2384 79.3995 97.0125 70.1664C97.084 69.3148 97.2103 68.618 97.2929 68.618C97.454 68.618 101.922 71.6889 104.065 73.2726C107.935 76.132 110.857 79.3361 112.249 82.2457C113.281 84.4018 113.407 87.2676 112.542 88.892C111.945 90.0126 112.23 89.9757 109.508 89.2854C101.859 87.3449 92.8143 88.5149 89.9042 91.8213C87.0706 95.0403 89.1659 97.7136 95.1786 98.5511C101.21 99.3909 107.799 97.8204 111.776 94.5946C112.689 93.8543 112.77 93.831 113.452 94.1132C115.485 94.9552 116.939 97.603 116.66 99.9577C116.041 105.182 110.051 107.362 104.053 104.546C102.42 103.779 101.649 103.798 101.039 104.619C99.3424 106.901 106.35 109.659 111.529 108.747C120.406 107.184 122.903 95.7266 115.294 91.4688C114.975 91.2896 115.002 91.1229 115.548 89.9402C116.407 88.0777 116.549 84.9596 115.876 82.7606C114.289 77.5776 109.75 73.028 99.1999 66.0425L96.7424 64.4155L96.221 62.8863C93.7175 55.5438 87.6554 51.504 68.5934 44.4745C62.9265 42.3848 59.2202 40.6762 56.1019 38.7165C53.7807 37.2576 43.383 29.5247 43.5364 29.3714C43.5858 29.3221 45.8257 29.4802 48.5139 29.7231C59.8712 30.7492 61.6305 30.6323 61.6305 28.8518C61.6305 27.8402 60.9163 27.2918 59.5765 27.2746C54.9207 27.2147 51.7895 26.8262 44.5355 25.408C36.1486 23.7687 36.0445 23.7568 35.4177 24.3837ZM58.9869 56.6542C53.7675 57.47 49.5894 59.6062 46.0037 63.2917C39.0806 70.4081 39.7066 75.9472 47.9847 80.8219C57.1939 86.2453 74.9805 87.1577 84.503 82.6954C90.6473 79.8159 93.5839 75.5076 93.8889 68.9249L94.0039 66.4395L91.6991 65.1458C79.6441 58.38 67.731 55.2874 58.9869 56.6542ZM98.7949 91.649C95.6393 91.9824 93.2406 92.7942 92.2833 93.8527C91.7779 94.4114 91.9381 94.5929 93.2797 94.9811C97.5889 96.2286 103.38 95.6922 107.38 93.6751C109.383 92.6649 109.467 92.443 107.975 92.109C105.042 91.4529 102.065 91.3037 98.7949 91.649Z" fill="black"/>
</g>
</g>
</svg>
