<svg width="41" height="41" viewBox="0 0 41 41" fill="none" xmlns="http://www.w3.org/2000/svg">
<g filter="url(#filter0_ii_95_80)">
<rect width="40" height="40" rx="8" fill="#00A6FB"/>
</g>
<path d="M23.192 19.336C23.464 19.336 23.6 19.704 23.6 20.44C23.6 20.84 23.432 21.328 23.096 21.904C22.76 22.464 22.32 22.984 21.776 23.464C21.248 23.928 20.656 24.312 20 24.616C19.344 24.92 18.704 25.072 18.08 25.072C17.136 25.072 16.48 24.84 16.112 24.376C15.76 23.896 15.584 23.2 15.584 22.288C15.584 21.36 15.944 19.776 16.664 17.536C14.456 17.44 12.848 17.392 11.84 17.392H11.504C11.216 19.168 11.072 21.032 11.072 22.984C11.072 23.848 10.744 24.44 10.088 24.76C9.784 24.904 9.488 25.04 9.2 25.168C8.928 25.296 8.632 25.36 8.312 25.36C7.512 25.36 7.112 24.64 7.112 23.2C7.112 21.76 7.44 19.912 8.096 17.656C7.392 17.736 6.768 17.816 6.224 17.896C5.696 17.976 5.28 18.016 4.976 18.016C4.672 18.016 4.52 17.936 4.52 17.776C4.52 17.296 4.912 16.808 5.696 16.312C6.496 15.816 7.576 15.44 8.936 15.184C10.44 11.36 12.28 8.808 14.456 7.528C15.256 7.048 16.104 6.808 17 6.808C18.6 6.824 19.752 7.256 20.456 8.104C21.176 8.952 21.536 10.08 21.536 11.488C21.552 12.88 21.128 14.696 20.264 16.936C19.944 17.8 19.648 18.584 19.376 19.288C19.104 19.992 18.968 20.56 18.968 20.992C18.968 21.424 19 21.752 19.064 21.976C19.128 22.2 19.28 22.312 19.52 22.312C19.952 22.312 20.968 21.48 22.568 19.816C22.856 19.496 23.064 19.336 23.192 19.336ZM18.08 12.184C18.08 10.792 17.56 10.096 16.52 10.096C15.464 10.096 14.552 10.544 13.784 11.44C13.032 12.32 12.448 13.504 12.032 14.992L17.48 15.064C17.88 13.784 18.08 12.824 18.08 12.184ZM26.8235 24.448C26.8235 24.896 26.5035 25.12 25.8635 25.12C24.8555 25.12 24.1675 24.928 23.7995 24.544C23.4315 24.144 23.2475 23.48 23.2475 22.552C23.2635 21.112 23.6555 18.808 24.4235 15.64C25.2075 12.472 25.9435 10.12 26.6315 8.584C26.8075 8.184 27.0555 7.808 27.3755 7.456C27.6955 7.088 28.1195 6.904 28.6475 6.904C28.8715 6.904 29.0555 7.04 29.1995 7.312C29.3595 7.584 29.4395 7.896 29.4395 8.248C29.4395 8.6 29.3755 9.128 29.2475 9.832C29.1195 10.52 28.9595 11.312 28.7675 12.208C28.5755 13.104 28.3595 14.072 28.1195 15.112C27.2555 19.064 26.8235 22.176 26.8235 24.448Z" fill="#FBFBF2"/>
<g filter="url(#filter1_di_95_80)">
<mask id="path-3-outside-1_95_80" maskUnits="userSpaceOnUse" x="4.9988" y="14.8775" width="30.4106" height="19.804" fill="black">
<rect fill="white" x="4.9988" y="14.8775" width="30.4106" height="19.804"/>
<path d="M7.45001 25.5156C7.41895 25.3996 7.44528 25.3305 7.52899 25.308C7.65778 25.2735 7.79756 25.2671 7.94832 25.2889C8.09735 25.3041 8.25345 25.3072 8.41663 25.298C8.63674 24.0588 9.03678 23.182 9.61677 22.6677C9.81753 22.4897 10.0338 22.3696 10.2656 22.3075C10.6988 22.1983 11.0162 22.2237 11.2178 22.3837C11.4258 22.5419 11.5721 22.7787 11.6567 23.0943C11.8107 23.6949 11.6799 24.2372 11.2644 24.7213C10.8471 25.1989 10.2766 25.5553 9.55287 25.7907C9.49898 26.3365 9.49558 26.9034 9.54266 27.4913C9.76792 27.3274 10.077 27.1928 10.4698 27.0875C10.63 27.4794 10.7978 27.7451 10.9732 27.8844C11.1485 28.0238 11.3135 28.0727 11.4681 28.0313C11.629 27.9882 11.7507 27.9142 11.833 27.8093C11.9218 27.7027 11.9919 27.5907 12.0433 27.4734C12.1011 27.3544 12.1454 27.2494 12.1762 27.1583C12.2135 27.0655 12.2579 27.0122 12.3094 26.9984C12.4188 26.9691 12.4995 27.051 12.5512 27.2442C12.6548 27.6305 12.6444 27.9784 12.5203 28.2877C12.3944 28.5906 12.1318 28.7956 11.7326 28.9026C11.1079 29.0699 10.6196 29.0248 10.2676 28.7671C10.7889 30.1458 11.0857 30.9704 11.1582 31.2409C11.2876 31.7239 11.2286 32.1089 10.9811 32.3961C10.7766 32.6372 10.4779 32.8104 10.0851 32.9157C9.69873 33.0192 9.40411 33.0015 9.20125 32.8626C9.00655 32.7285 8.87642 32.539 8.81085 32.2943C8.39502 30.7424 8.19876 29.1213 8.22207 27.431C8.22915 26.8908 8.26418 26.3775 8.32716 25.8913C7.78725 25.8082 7.49487 25.683 7.45001 25.5156ZM10.2432 32.0762C10.3205 32.0555 10.3749 31.9753 10.4065 31.8357C10.4399 31.7025 10.4384 31.5683 10.4022 31.4331C10.2831 30.9888 10.039 30.3226 9.66996 29.4345C9.68669 30.1409 9.75408 30.8303 9.87212 31.5027C9.8972 31.6478 9.91406 31.7365 9.92268 31.7686C9.98825 32.0133 10.0951 32.1159 10.2432 32.0762ZM10.4446 23.2845C10.3158 23.319 10.1715 23.4888 10.0117 23.7939C9.85832 24.0972 9.73301 24.5311 9.63578 25.0955C10.0506 24.7635 10.3175 24.5229 10.4362 24.3738C10.682 24.0802 10.7651 23.7852 10.6858 23.489C10.6409 23.3216 10.5605 23.2534 10.4446 23.2845ZM16.2941 27.5354C15.9458 28.2706 15.4143 28.7339 14.6995 28.9254C13.9911 29.1152 13.4116 29.0773 12.9608 28.8116C12.5083 28.5394 12.2127 28.132 12.0742 27.5894C11.8625 26.8248 11.9271 26.1 12.2681 25.4151C12.6091 24.7302 13.1757 24.2816 13.9677 24.0694C14.3283 23.9727 14.6302 23.9402 14.8733 23.9717C15.2946 24.0244 15.5234 24.1184 15.5596 24.2536C15.5873 24.3567 15.3347 24.483 14.8019 24.6327C14.2739 24.7741 13.8787 25.0767 13.6165 25.5404C13.3589 25.9959 13.3044 26.5006 13.4527 27.0544C13.5304 27.3441 13.6797 27.5664 13.9006 27.7212C14.1262 27.8678 14.3936 27.8997 14.7027 27.8168C15.0182 27.7323 15.2618 27.598 15.4333 27.414C14.8933 27.2274 14.5448 26.8411 14.3877 26.2551C14.2985 25.9478 14.3329 25.6383 14.491 25.3268C14.6538 25.0071 14.9123 24.7998 15.2665 24.7049C15.6253 24.6018 15.9088 24.6294 16.1168 24.7876C16.3249 24.9458 16.4712 25.1827 16.5557 25.4982C16.6385 25.8073 16.6525 26.1556 16.5976 26.543L16.6555 26.5275C16.9371 26.4451 17.1551 26.2797 17.3094 26.0313C17.3659 25.9334 17.4122 25.8485 17.4482 25.7767C17.4906 25.7032 17.5408 25.6587 17.5988 25.6432C17.6889 25.6191 17.7625 25.7132 17.8194 25.9257C17.9247 26.3185 17.8881 26.6458 17.7098 26.9076C17.5297 27.1629 17.298 27.3285 17.0147 27.4044C16.7378 27.4786 16.4976 27.5222 16.2941 27.5354ZM15.9069 26.4382C15.9542 26.177 15.9486 25.937 15.8899 25.718C15.8313 25.4991 15.7311 25.4086 15.5894 25.4466C15.5315 25.4621 15.4944 25.5169 15.4782 25.611C15.462 25.705 15.4642 25.7907 15.4849 25.868C15.5539 26.1256 15.6946 26.3156 15.9069 26.4382ZM18.8318 25.9961L19.2055 27.159C19.2469 27.3135 19.2035 27.4736 19.0753 27.6391C18.9471 27.8045 18.7446 27.9244 18.4677 27.9986C18.3067 28.0417 18.1716 27.9882 18.0623 27.838C17.9595 27.6861 17.865 27.4492 17.7787 27.1272C17.5975 26.4511 17.4882 25.9144 17.4508 25.5172C17.4181 25.1119 17.449 24.686 17.5433 24.2397C17.1712 24.0358 16.9575 23.8308 16.9023 23.6247C16.7867 23.1932 16.9607 22.9154 17.4244 22.7912C17.6626 22.7273 17.9056 22.7968 18.1532 22.9996C18.3285 23.139 18.4763 23.3168 18.5963 23.5331C18.6951 23.5412 18.8121 23.5271 18.9473 23.4908C19.1341 23.4408 19.3334 23.3218 19.5453 23.1339L19.7628 22.941C19.8298 22.8817 19.8922 22.8443 19.9501 22.8287C20.1369 22.7787 20.397 23.0023 20.7304 23.4997C20.7397 23.7663 20.74 24.0251 20.7313 24.2759C20.729 24.5249 20.7268 24.8258 20.7247 25.1783C20.7225 25.5309 20.7337 25.766 20.7584 25.8836C20.7877 25.9931 20.8378 26.0384 20.9086 26.0194C21.0052 25.9935 21.1079 25.9004 21.2168 25.7401C21.3257 25.5798 21.432 25.4098 21.5357 25.2302C21.6377 25.0441 21.7303 24.8744 21.8134 24.721C21.903 24.5658 21.9703 24.4822 22.0153 24.4701C22.1055 24.446 22.1799 24.5434 22.2386 24.7623C22.3576 25.2067 22.2786 25.6972 22.0014 26.2339C21.7306 26.7688 21.3432 27.1004 20.8392 27.2285C20.543 27.3079 20.2889 27.2483 20.0769 27.0497C19.865 26.8512 19.7101 26.5821 19.6122 26.2425C19.431 25.5664 19.4107 24.8851 19.5511 24.1987C19.425 24.2946 19.2718 24.3667 19.0915 24.415C18.9176 24.4616 18.7903 24.4888 18.7096 24.4966C18.7172 24.7569 18.7257 25.0203 18.735 25.287C18.7426 25.5472 18.7749 25.7836 18.8318 25.9961ZM26.7774 22.4591C26.7205 22.2466 26.5697 22.1731 26.325 22.2387C26.1575 22.2836 26.0148 22.4978 25.8967 22.8814C25.7769 23.2586 25.722 23.646 25.7319 24.0437L25.7371 24.063C25.7958 24.282 25.8884 24.4987 26.0149 24.7133C26.1478 24.9261 26.2264 25.0776 26.2505 25.1678C26.3092 25.3867 26.0933 25.6758 25.6029 26.0349C25.5278 26.0896 25.4581 26.1255 25.3937 26.1428C25.2327 26.1859 25.0976 26.1324 24.9883 25.9822C24.8855 25.8303 24.7961 25.6127 24.7202 25.3294C24.6426 25.0396 24.5765 24.7674 24.5221 24.5128C24.4724 24.25 24.4255 24.0107 24.3815 23.7947C24.3421 23.5706 24.3073 23.3763 24.2771 23.2119C24.2515 23.0393 24.225 22.9015 24.1973 22.7984C24.1387 22.5795 24.0095 22.4968 23.8099 22.5503C23.6103 22.6038 23.4414 22.9009 23.3034 23.4417C23.1636 23.9761 23.1308 24.3818 23.205 24.6587C23.2775 24.9291 23.377 25.1716 23.5035 25.3862C23.6364 25.599 23.715 25.7505 23.7391 25.8407C23.7978 26.0596 23.5819 26.3487 23.0915 26.7079C23.0164 26.7625 22.9467 26.7984 22.8823 26.8157C22.7213 26.8588 22.5862 26.8053 22.4769 26.6551C22.3741 26.5032 22.2761 26.2534 22.1829 25.9057C21.9379 24.9913 21.7965 24.3217 21.7586 23.8971C21.6947 23.2723 21.7618 22.647 21.9599 22.021C22.0275 21.8097 22.1289 21.6859 22.2641 21.6496C22.4766 21.5927 22.7196 21.7139 22.9931 22.0134C23.0688 22.0897 23.1299 22.1631 23.1763 22.2335C23.3819 21.7643 23.694 21.4736 24.1125 21.3614C24.3894 21.2872 24.6624 21.3142 24.9313 21.4423C25.1986 21.5639 25.3693 21.7632 25.4435 22.0401L25.472 22.1463C25.7337 21.5517 26.1478 21.1784 26.7145 21.0266C27.0623 20.9334 27.3504 20.9528 27.579 21.0848C27.8077 21.2168 27.9573 21.4148 28.0281 21.6788C28.0988 21.9428 28.1434 22.1863 28.1617 22.4091C28.18 22.632 28.1884 22.8437 28.1869 23.0442C28.1919 23.2431 28.1949 23.4217 28.1959 23.5802C28.1952 23.7322 28.2061 23.8501 28.2285 23.9338C28.2493 24.011 28.2854 24.0428 28.3369 24.029C28.4335 24.0031 28.5362 23.91 28.6451 23.7497C28.754 23.5894 28.8603 23.4194 28.964 23.2398C29.066 23.0537 29.1585 22.884 29.2417 22.7306C29.3312 22.5754 29.3985 22.4918 29.4436 22.4797C29.5338 22.4556 29.6082 22.553 29.6668 22.7719C29.7876 23.2227 29.6764 23.7218 29.333 24.2693C28.9962 24.8151 28.5701 25.157 28.055 25.2951C27.5913 25.4193 27.2465 25.0596 27.0204 24.2161C26.9635 24.0036 26.9204 23.7011 26.8912 23.3086C26.8619 22.9161 26.824 22.633 26.7774 22.4591ZM30.6443 19.5595C31.074 19.4374 31.4175 19.4317 31.6749 19.5422C31.9305 19.6462 32.0998 19.8528 32.1826 20.1619C32.2637 20.4645 32.2402 20.7503 32.1121 21.0193C31.9887 21.2801 31.8071 21.491 31.5673 21.6519C31.8058 21.795 32.0258 21.9466 32.2274 22.1065C32.4355 22.2647 32.5688 22.4533 32.6275 22.6723C32.7431 23.1037 32.6622 23.4843 32.3847 23.814C32.1055 24.1373 31.6601 24.3809 31.0483 24.5448C30.443 24.707 29.9571 24.7095 29.5906 24.5523C29.2224 24.3887 28.9977 24.1556 28.9166 23.8529C28.8338 23.5438 28.8328 23.2439 28.9136 22.9531C29.0009 22.6605 29.1314 22.4909 29.3053 22.4443C29.4083 22.4167 29.4927 22.4355 29.5585 22.5007C29.6226 22.5595 29.7632 22.7496 29.9805 23.0709C30.0601 23.1877 30.1669 23.2902 30.301 23.3785C30.61 23.5786 31.0221 23.6097 31.5372 23.4717C31.3944 23.2477 31.2127 23.072 30.9923 22.9448C30.7766 22.8093 30.5625 22.6803 30.3502 22.5578C30.138 22.4352 29.9424 22.2978 29.7636 22.1455C29.583 21.9869 29.4582 21.7787 29.3892 21.5212C29.265 21.0575 29.3379 20.6342 29.608 20.2513C29.8674 19.9057 30.2128 19.6751 30.6443 19.5595ZM31.0844 21.3568C31.2678 21.0109 31.3371 20.7542 31.2922 20.5868C31.2715 20.5095 31.2244 20.4497 31.1509 20.4072C31.0822 20.3566 30.9963 20.3452 30.8932 20.3728C30.7902 20.4004 30.6938 20.44 30.6042 20.4916C30.5209 20.5416 30.452 20.5807 30.3975 20.6091C30.4631 20.8538 30.6921 21.1031 31.0844 21.3568Z"/>
</mask>
<path d="M7.45001 25.5156C7.41895 25.3996 7.44528 25.3305 7.52899 25.308C7.65778 25.2735 7.79756 25.2671 7.94832 25.2889C8.09735 25.3041 8.25345 25.3072 8.41663 25.298C8.63674 24.0588 9.03678 23.182 9.61677 22.6677C9.81753 22.4897 10.0338 22.3696 10.2656 22.3075C10.6988 22.1983 11.0162 22.2237 11.2178 22.3837C11.4258 22.5419 11.5721 22.7787 11.6567 23.0943C11.8107 23.6949 11.6799 24.2372 11.2644 24.7213C10.8471 25.1989 10.2766 25.5553 9.55287 25.7907C9.49898 26.3365 9.49558 26.9034 9.54266 27.4913C9.76792 27.3274 10.077 27.1928 10.4698 27.0875C10.63 27.4794 10.7978 27.7451 10.9732 27.8844C11.1485 28.0238 11.3135 28.0727 11.4681 28.0313C11.629 27.9882 11.7507 27.9142 11.833 27.8093C11.9218 27.7027 11.9919 27.5907 12.0433 27.4734C12.1011 27.3544 12.1454 27.2494 12.1762 27.1583C12.2135 27.0655 12.2579 27.0122 12.3094 26.9984C12.4188 26.9691 12.4995 27.051 12.5512 27.2442C12.6548 27.6305 12.6444 27.9784 12.5203 28.2877C12.3944 28.5906 12.1318 28.7956 11.7326 28.9026C11.1079 29.0699 10.6196 29.0248 10.2676 28.7671C10.7889 30.1458 11.0857 30.9704 11.1582 31.2409C11.2876 31.7239 11.2286 32.1089 10.9811 32.3961C10.7766 32.6372 10.4779 32.8104 10.0851 32.9157C9.69873 33.0192 9.40411 33.0015 9.20125 32.8626C9.00655 32.7285 8.87642 32.539 8.81085 32.2943C8.39502 30.7424 8.19876 29.1213 8.22207 27.431C8.22915 26.8908 8.26418 26.3775 8.32716 25.8913C7.78725 25.8082 7.49487 25.683 7.45001 25.5156ZM10.2432 32.0762C10.3205 32.0555 10.3749 31.9753 10.4065 31.8357C10.4399 31.7025 10.4384 31.5683 10.4022 31.4331C10.2831 30.9888 10.039 30.3226 9.66996 29.4345C9.68669 30.1409 9.75408 30.8303 9.87212 31.5027C9.8972 31.6478 9.91406 31.7365 9.92268 31.7686C9.98825 32.0133 10.0951 32.1159 10.2432 32.0762ZM10.4446 23.2845C10.3158 23.319 10.1715 23.4888 10.0117 23.7939C9.85832 24.0972 9.73301 24.5311 9.63578 25.0955C10.0506 24.7635 10.3175 24.5229 10.4362 24.3738C10.682 24.0802 10.7651 23.7852 10.6858 23.489C10.6409 23.3216 10.5605 23.2534 10.4446 23.2845ZM16.2941 27.5354C15.9458 28.2706 15.4143 28.7339 14.6995 28.9254C13.9911 29.1152 13.4116 29.0773 12.9608 28.8116C12.5083 28.5394 12.2127 28.132 12.0742 27.5894C11.8625 26.8248 11.9271 26.1 12.2681 25.4151C12.6091 24.7302 13.1757 24.2816 13.9677 24.0694C14.3283 23.9727 14.6302 23.9402 14.8733 23.9717C15.2946 24.0244 15.5234 24.1184 15.5596 24.2536C15.5873 24.3567 15.3347 24.483 14.8019 24.6327C14.2739 24.7741 13.8787 25.0767 13.6165 25.5404C13.3589 25.9959 13.3044 26.5006 13.4527 27.0544C13.5304 27.3441 13.6797 27.5664 13.9006 27.7212C14.1262 27.8678 14.3936 27.8997 14.7027 27.8168C15.0182 27.7323 15.2618 27.598 15.4333 27.414C14.8933 27.2274 14.5448 26.8411 14.3877 26.2551C14.2985 25.9478 14.3329 25.6383 14.491 25.3268C14.6538 25.0071 14.9123 24.7998 15.2665 24.7049C15.6253 24.6018 15.9088 24.6294 16.1168 24.7876C16.3249 24.9458 16.4712 25.1827 16.5557 25.4982C16.6385 25.8073 16.6525 26.1556 16.5976 26.543L16.6555 26.5275C16.9371 26.4451 17.1551 26.2797 17.3094 26.0313C17.3659 25.9334 17.4122 25.8485 17.4482 25.7767C17.4906 25.7032 17.5408 25.6587 17.5988 25.6432C17.6889 25.6191 17.7625 25.7132 17.8194 25.9257C17.9247 26.3185 17.8881 26.6458 17.7098 26.9076C17.5297 27.1629 17.298 27.3285 17.0147 27.4044C16.7378 27.4786 16.4976 27.5222 16.2941 27.5354ZM15.9069 26.4382C15.9542 26.177 15.9486 25.937 15.8899 25.718C15.8313 25.4991 15.7311 25.4086 15.5894 25.4466C15.5315 25.4621 15.4944 25.5169 15.4782 25.611C15.462 25.705 15.4642 25.7907 15.4849 25.868C15.5539 26.1256 15.6946 26.3156 15.9069 26.4382ZM18.8318 25.9961L19.2055 27.159C19.2469 27.3135 19.2035 27.4736 19.0753 27.6391C18.9471 27.8045 18.7446 27.9244 18.4677 27.9986C18.3067 28.0417 18.1716 27.9882 18.0623 27.838C17.9595 27.6861 17.865 27.4492 17.7787 27.1272C17.5975 26.4511 17.4882 25.9144 17.4508 25.5172C17.4181 25.1119 17.449 24.686 17.5433 24.2397C17.1712 24.0358 16.9575 23.8308 16.9023 23.6247C16.7867 23.1932 16.9607 22.9154 17.4244 22.7912C17.6626 22.7273 17.9056 22.7968 18.1532 22.9996C18.3285 23.139 18.4763 23.3168 18.5963 23.5331C18.6951 23.5412 18.8121 23.5271 18.9473 23.4908C19.1341 23.4408 19.3334 23.3218 19.5453 23.1339L19.7628 22.941C19.8298 22.8817 19.8922 22.8443 19.9501 22.8287C20.1369 22.7787 20.397 23.0023 20.7304 23.4997C20.7397 23.7663 20.74 24.0251 20.7313 24.2759C20.729 24.5249 20.7268 24.8258 20.7247 25.1783C20.7225 25.5309 20.7337 25.766 20.7584 25.8836C20.7877 25.9931 20.8378 26.0384 20.9086 26.0194C21.0052 25.9935 21.1079 25.9004 21.2168 25.7401C21.3257 25.5798 21.432 25.4098 21.5357 25.2302C21.6377 25.0441 21.7303 24.8744 21.8134 24.721C21.903 24.5658 21.9703 24.4822 22.0153 24.4701C22.1055 24.446 22.1799 24.5434 22.2386 24.7623C22.3576 25.2067 22.2786 25.6972 22.0014 26.2339C21.7306 26.7688 21.3432 27.1004 20.8392 27.2285C20.543 27.3079 20.2889 27.2483 20.0769 27.0497C19.865 26.8512 19.7101 26.5821 19.6122 26.2425C19.431 25.5664 19.4107 24.8851 19.5511 24.1987C19.425 24.2946 19.2718 24.3667 19.0915 24.415C18.9176 24.4616 18.7903 24.4888 18.7096 24.4966C18.7172 24.7569 18.7257 25.0203 18.735 25.287C18.7426 25.5472 18.7749 25.7836 18.8318 25.9961ZM26.7774 22.4591C26.7205 22.2466 26.5697 22.1731 26.325 22.2387C26.1575 22.2836 26.0148 22.4978 25.8967 22.8814C25.7769 23.2586 25.722 23.646 25.7319 24.0437L25.7371 24.063C25.7958 24.282 25.8884 24.4987 26.0149 24.7133C26.1478 24.9261 26.2264 25.0776 26.2505 25.1678C26.3092 25.3867 26.0933 25.6758 25.6029 26.0349C25.5278 26.0896 25.4581 26.1255 25.3937 26.1428C25.2327 26.1859 25.0976 26.1324 24.9883 25.9822C24.8855 25.8303 24.7961 25.6127 24.7202 25.3294C24.6426 25.0396 24.5765 24.7674 24.5221 24.5128C24.4724 24.25 24.4255 24.0107 24.3815 23.7947C24.3421 23.5706 24.3073 23.3763 24.2771 23.2119C24.2515 23.0393 24.225 22.9015 24.1973 22.7984C24.1387 22.5795 24.0095 22.4968 23.8099 22.5503C23.6103 22.6038 23.4414 22.9009 23.3034 23.4417C23.1636 23.9761 23.1308 24.3818 23.205 24.6587C23.2775 24.9291 23.377 25.1716 23.5035 25.3862C23.6364 25.599 23.715 25.7505 23.7391 25.8407C23.7978 26.0596 23.5819 26.3487 23.0915 26.7079C23.0164 26.7625 22.9467 26.7984 22.8823 26.8157C22.7213 26.8588 22.5862 26.8053 22.4769 26.6551C22.3741 26.5032 22.2761 26.2534 22.1829 25.9057C21.9379 24.9913 21.7965 24.3217 21.7586 23.8971C21.6947 23.2723 21.7618 22.647 21.9599 22.021C22.0275 21.8097 22.1289 21.6859 22.2641 21.6496C22.4766 21.5927 22.7196 21.7139 22.9931 22.0134C23.0688 22.0897 23.1299 22.1631 23.1763 22.2335C23.3819 21.7643 23.694 21.4736 24.1125 21.3614C24.3894 21.2872 24.6624 21.3142 24.9313 21.4423C25.1986 21.5639 25.3693 21.7632 25.4435 22.0401L25.472 22.1463C25.7337 21.5517 26.1478 21.1784 26.7145 21.0266C27.0623 20.9334 27.3504 20.9528 27.579 21.0848C27.8077 21.2168 27.9573 21.4148 28.0281 21.6788C28.0988 21.9428 28.1434 22.1863 28.1617 22.4091C28.18 22.632 28.1884 22.8437 28.1869 23.0442C28.1919 23.2431 28.1949 23.4217 28.1959 23.5802C28.1952 23.7322 28.2061 23.8501 28.2285 23.9338C28.2493 24.011 28.2854 24.0428 28.3369 24.029C28.4335 24.0031 28.5362 23.91 28.6451 23.7497C28.754 23.5894 28.8603 23.4194 28.964 23.2398C29.066 23.0537 29.1585 22.884 29.2417 22.7306C29.3312 22.5754 29.3985 22.4918 29.4436 22.4797C29.5338 22.4556 29.6082 22.553 29.6668 22.7719C29.7876 23.2227 29.6764 23.7218 29.333 24.2693C28.9962 24.8151 28.5701 25.157 28.055 25.2951C27.5913 25.4193 27.2465 25.0596 27.0204 24.2161C26.9635 24.0036 26.9204 23.7011 26.8912 23.3086C26.8619 22.9161 26.824 22.633 26.7774 22.4591ZM30.6443 19.5595C31.074 19.4374 31.4175 19.4317 31.6749 19.5422C31.9305 19.6462 32.0998 19.8528 32.1826 20.1619C32.2637 20.4645 32.2402 20.7503 32.1121 21.0193C31.9887 21.2801 31.8071 21.491 31.5673 21.6519C31.8058 21.795 32.0258 21.9466 32.2274 22.1065C32.4355 22.2647 32.5688 22.4533 32.6275 22.6723C32.7431 23.1037 32.6622 23.4843 32.3847 23.814C32.1055 24.1373 31.6601 24.3809 31.0483 24.5448C30.443 24.707 29.9571 24.7095 29.5906 24.5523C29.2224 24.3887 28.9977 24.1556 28.9166 23.8529C28.8338 23.5438 28.8328 23.2439 28.9136 22.9531C29.0009 22.6605 29.1314 22.4909 29.3053 22.4443C29.4083 22.4167 29.4927 22.4355 29.5585 22.5007C29.6226 22.5595 29.7632 22.7496 29.9805 23.0709C30.0601 23.1877 30.1669 23.2902 30.301 23.3785C30.61 23.5786 31.0221 23.6097 31.5372 23.4717C31.3944 23.2477 31.2127 23.072 30.9923 22.9448C30.7766 22.8093 30.5625 22.6803 30.3502 22.5578C30.138 22.4352 29.9424 22.2978 29.7636 22.1455C29.583 21.9869 29.4582 21.7787 29.3892 21.5212C29.265 21.0575 29.3379 20.6342 29.608 20.2513C29.8674 19.9057 30.2128 19.6751 30.6443 19.5595ZM31.0844 21.3568C31.2678 21.0109 31.3371 20.7542 31.2922 20.5868C31.2715 20.5095 31.2244 20.4497 31.1509 20.4072C31.0822 20.3566 30.9963 20.3452 30.8932 20.3728C30.7902 20.4004 30.6938 20.44 30.6042 20.4916C30.5209 20.5416 30.452 20.5807 30.3975 20.6091C30.4631 20.8538 30.6921 21.1031 31.0844 21.3568Z" fill="#3772FF"/>
<path d="M7.94832 25.2889L7.80571 26.2786C7.81921 26.2806 7.83275 26.2823 7.84632 26.2836L7.94832 25.2889ZM8.41663 25.298L8.473 26.2964C8.9359 26.2702 9.32014 25.9293 9.40122 25.4728L8.41663 25.298ZM9.61677 22.6677L10.2802 23.4159L10.2802 23.4159L9.61677 22.6677ZM10.2656 22.3075L10.0213 21.3378C10.0164 21.339 10.0116 21.3403 10.0068 21.3416L10.2656 22.3075ZM11.2178 22.3837L10.5963 23.1671C10.6016 23.1713 10.607 23.1755 10.6125 23.1796L11.2178 22.3837ZM11.6567 23.0943L12.6254 22.8459L12.6226 22.8355L11.6567 23.0943ZM11.2644 24.7213L12.0175 25.3792L12.0232 25.3726L11.2644 24.7213ZM9.55287 25.7907L9.24364 24.8397C8.86594 24.9625 8.59672 25.2972 8.5577 25.6924L9.55287 25.7907ZM9.54266 27.4913L8.54586 27.5711C8.57474 27.9318 8.7962 28.2487 9.12493 28.3998C9.45367 28.551 9.8384 28.5127 10.131 28.2999L9.54266 27.4913ZM10.4698 27.0875L11.3954 26.7091C11.2048 26.243 10.6974 25.9913 10.2109 26.1216L10.4698 27.0875ZM10.9732 27.8844L10.351 28.6673L10.351 28.6673L10.9732 27.8844ZM11.833 27.8093L11.0645 27.1694C11.0584 27.1768 11.0523 27.1843 11.0464 27.1919L11.833 27.8093ZM12.0433 27.4734L11.1438 27.0364C11.1381 27.0482 11.1326 27.0601 11.1273 27.0721L12.0433 27.4734ZM12.1762 27.1583L11.2482 26.7858C11.2413 26.803 11.2349 26.8203 11.229 26.8378L12.1762 27.1583ZM12.5203 28.2877L13.4438 28.6716L13.4483 28.6602L12.5203 28.2877ZM10.2676 28.7671L10.8582 27.9602C10.5011 27.6987 10.0145 27.7032 9.66224 27.9711C9.30993 28.2391 9.17567 28.7067 9.3322 29.1208L10.2676 28.7671ZM10.9811 32.3961L10.2236 31.7433L10.2185 31.7492L10.9811 32.3961ZM9.20125 32.8626L8.63378 33.686L8.6363 33.6878L9.20125 32.8626ZM8.22207 27.431L9.22198 27.4448L9.22198 27.4441L8.22207 27.431ZM8.32716 25.8913L9.31887 26.0198C9.38862 25.4813 9.01593 24.9856 8.47927 24.903L8.32716 25.8913ZM10.4065 31.8357L9.43646 31.5929C9.43463 31.6002 9.43288 31.6075 9.43122 31.6149L10.4065 31.8357ZM9.66996 29.4345L10.5934 29.0507C10.4087 28.6063 9.93354 28.3565 9.46268 28.4562C8.99183 28.556 8.65884 28.977 8.67024 29.4582L9.66996 29.4345ZM9.87212 31.5027L10.8575 31.3324L10.8571 31.3298L9.87212 31.5027ZM10.0117 23.7939L9.12587 23.3299C9.12364 23.3341 9.12144 23.3384 9.11927 23.3427L10.0117 23.7939ZM9.63578 25.0955L8.65029 24.9257C8.57976 25.3351 8.7697 25.7455 9.12745 25.9567C9.48521 26.1679 9.93627 26.1359 10.2606 25.8763L9.63578 25.0955ZM10.4362 24.3738L9.66937 23.732C9.66416 23.7382 9.65903 23.7445 9.65397 23.7508L10.4362 24.3738ZM8.41594 25.2567C8.42382 25.2861 8.47625 25.4823 8.38105 25.7325C8.32864 25.8702 8.2397 25.9998 8.11674 26.1022C7.99838 26.2007 7.87775 26.2499 7.78781 26.274L7.27017 24.3421C6.97865 24.4202 6.65985 24.6322 6.51187 25.021C6.39034 25.3403 6.44515 25.6291 6.48408 25.7744L8.41594 25.2567ZM7.78781 26.274C7.77922 26.2763 7.77471 26.2764 7.77611 26.2763C7.77783 26.2762 7.78723 26.276 7.80571 26.2786L8.09092 24.2991C7.8251 24.2608 7.54711 24.2679 7.27017 24.3421L7.78781 26.274ZM7.84632 26.2836C8.05246 26.3048 8.26174 26.3083 8.473 26.2964L8.36026 24.2996C8.24517 24.306 8.14224 24.3035 8.05032 24.2941L7.84632 26.2836ZM9.40122 25.4728C9.60468 24.3273 9.94553 23.7127 10.2802 23.4159L8.9533 21.9195C8.12803 22.6513 7.66879 23.7902 7.43204 25.1231L9.40122 25.4728ZM10.2802 23.4159C10.3787 23.3286 10.4595 23.2908 10.5245 23.2734L10.0068 21.3416C9.60813 21.4484 9.25636 21.6508 8.9533 21.9195L10.2802 23.4159ZM10.51 23.2772C10.5821 23.259 10.6382 23.2493 10.6797 23.2447C10.7216 23.24 10.7434 23.241 10.7488 23.2415C10.7539 23.2419 10.7381 23.2412 10.7086 23.2307C10.6777 23.2197 10.6375 23.1998 10.5963 23.1671L11.8393 21.6003C11.2609 21.1414 10.541 21.2068 10.0213 21.3378L10.51 23.2772ZM10.6125 23.1796C10.6125 23.1797 10.6199 23.1846 10.6327 23.2054C10.6468 23.2282 10.6694 23.2735 10.6908 23.3531L12.6226 22.8355C12.4953 22.3604 12.2478 21.9106 11.8231 21.5877L10.6125 23.1796ZM10.688 23.3427C10.7582 23.6164 10.7159 23.825 10.5056 24.0699L12.0232 25.3726C12.644 24.6494 12.8632 23.7734 12.6253 22.8459L10.688 23.3427ZM10.5113 24.0633C10.2346 24.38 9.83018 24.649 9.24364 24.8397L9.8621 26.7417C10.7231 26.4617 11.4596 26.0177 12.0175 25.3792L10.5113 24.0633ZM8.5577 25.6924C8.49756 26.3017 8.49438 26.9284 8.54586 27.5711L10.5395 27.4114C10.4968 26.8785 10.5004 26.3714 10.548 25.8889L8.5577 25.6924ZM10.131 28.2999C10.2225 28.2333 10.4046 28.1403 10.7286 28.0535L10.2109 26.1216C9.74927 26.2453 9.31334 26.4214 8.95435 26.6826L10.131 28.2999ZM9.54414 27.466C9.72093 27.8984 9.96826 28.3632 10.351 28.6673L11.5953 27.1015C11.623 27.1235 11.6074 27.1197 11.5612 27.0466C11.5172 26.9769 11.4605 26.8682 11.3954 26.7091L9.54414 27.466ZM10.351 28.6673C10.6686 28.9196 11.1557 29.1503 11.7269 28.9973L11.2092 27.0654C11.3238 27.0347 11.4324 27.0431 11.513 27.067C11.5842 27.0881 11.6115 27.1144 11.5953 27.1015L10.351 28.6673ZM11.7269 28.9973C12.0438 28.9123 12.3734 28.7405 12.6196 28.4268L11.0464 27.1919C11.0842 27.1437 11.1257 27.1102 11.1603 27.0891C11.1931 27.0692 11.2131 27.0644 11.2092 27.0654L11.7269 28.9973ZM12.6015 28.4492C12.7454 28.2763 12.8671 28.0849 12.9592 27.8748L11.1273 27.0721C11.1166 27.0965 11.0982 27.129 11.0645 27.1694L12.6015 28.4492ZM12.9427 27.9105C13.0126 27.7666 13.0753 27.6213 13.1235 27.4787L11.229 26.8378C11.2156 26.8774 11.1896 26.9422 11.1438 27.0364L12.9427 27.9105ZM13.1043 27.5308C13.0996 27.5424 13.0729 27.6081 13.0059 27.6886C12.9355 27.7732 12.7942 27.9037 12.5682 27.9643L12.0506 26.0325C11.5112 26.177 11.3065 26.6405 11.2482 26.7858L13.1043 27.5308ZM12.5682 27.9643C12.4495 27.9961 12.2918 28.0087 12.1194 27.961C11.9478 27.9136 11.8215 27.8229 11.7392 27.7392C11.5988 27.5966 11.5754 27.466 11.5853 27.503L13.5172 26.9853C13.4753 26.8292 13.3857 26.561 13.1647 26.3364C12.8763 26.0433 12.4593 25.9229 12.0506 26.0325L12.5682 27.9643ZM11.5853 27.503C11.6443 27.7233 11.6207 27.8444 11.5922 27.9152L13.4483 28.6602C13.6682 28.1124 13.6652 27.5377 13.5172 26.9853L11.5853 27.503ZM11.5968 27.9039C11.5977 27.9019 11.6006 27.896 11.6059 27.889C11.6112 27.8821 11.615 27.8793 11.6136 27.8803C11.6102 27.883 11.5741 27.9097 11.4737 27.9366L11.9914 29.8685C12.6046 29.7042 13.1682 29.3343 13.4437 28.6715L11.5968 27.9039ZM11.4737 27.9366C10.9965 28.0645 10.8659 27.9658 10.8582 27.9602L9.67693 29.574C10.3733 30.0837 11.2193 30.0754 11.9914 29.8685L11.4737 27.9366ZM9.3322 29.1208C9.86319 30.5252 10.1361 31.2902 10.1923 31.4997L12.1241 30.9821C12.0353 30.6507 11.7145 29.7665 11.203 28.4135L9.3322 29.1208ZM10.1923 31.4997C10.2309 31.6439 10.226 31.7177 10.2225 31.7404C10.221 31.7507 10.2196 31.7517 10.2215 31.7475C10.2235 31.7432 10.2253 31.7413 10.2236 31.7433L11.7387 33.0489C12.2687 32.4338 12.3089 31.6717 12.1241 30.9821L10.1923 31.4997ZM10.2185 31.7492C10.1786 31.7963 10.0786 31.8822 9.82628 31.9498L10.3439 33.8816C10.8772 33.7387 11.3745 33.4782 11.7438 33.0429L10.2185 31.7492ZM9.82628 31.9498C9.76662 31.9658 9.72079 31.9743 9.68745 31.9785C9.65403 31.9827 9.63721 31.9821 9.63427 31.9819C9.63171 31.9817 9.64557 31.9823 9.67083 31.9902C9.69703 31.9985 9.73071 32.0132 9.7662 32.0375L8.6363 33.6878C9.19645 34.0713 9.84865 34.0143 10.3439 33.8816L9.82628 31.9498ZM9.76872 32.0393C9.76796 32.0387 9.76985 32.04 9.77312 32.0432C9.77643 32.0465 9.7795 32.0502 9.78189 32.0537C9.78424 32.0571 9.78468 32.0585 9.78379 32.0565C9.78285 32.0544 9.7801 32.0479 9.77678 32.0355L7.84493 32.5531C7.96726 33.0097 8.22881 33.4069 8.63378 33.686L9.76872 32.0393ZM9.77678 32.0355C9.38597 30.577 9.19986 29.0479 9.22198 27.4448L7.22217 27.4172C7.19765 29.1947 7.40407 30.9078 7.84493 32.5531L9.77678 32.0355ZM9.22198 27.4441C9.22861 26.9386 9.26132 26.4641 9.31887 26.0198L7.33544 25.7629C7.26704 26.291 7.22969 26.8429 7.22216 27.4179L9.22198 27.4441ZM8.47927 24.903C8.36702 24.8857 8.2788 24.8679 8.21149 24.851C8.14251 24.8338 8.10745 24.8205 8.09674 24.8159C8.08192 24.8095 8.12403 24.8246 8.18552 24.878C8.25094 24.9348 8.36248 25.0572 8.41594 25.2567L6.48408 25.7744C6.63225 26.3273 7.10231 26.5657 7.30915 26.6543C7.56852 26.7654 7.87221 26.8331 8.17504 26.8797L8.47927 24.903ZM10.502 33.0421C11.1557 32.867 11.3343 32.2665 11.3818 32.0565L9.43122 31.6149C9.43216 31.6107 9.43646 31.5925 9.44738 31.5646C9.45815 31.5371 9.47858 31.4919 9.51476 31.4387C9.59264 31.324 9.74473 31.1745 9.98438 31.1102L10.502 33.0421ZM11.3766 32.0786C11.452 31.7771 11.4474 31.4703 11.3681 31.1743L9.43625 31.6919C9.43362 31.6821 9.43072 31.6662 9.4305 31.646C9.43028 31.6257 9.43285 31.6073 9.43646 31.5929L11.3766 32.0786ZM11.3681 31.1743C11.231 30.6626 10.9653 29.9456 10.5934 29.0507L8.74654 29.8183C9.1128 30.6996 9.33524 31.315 9.43625 31.6919L11.3681 31.1743ZM8.67024 29.4582C8.68812 30.2129 8.76019 30.9522 8.88719 31.6756L10.8571 31.3298C10.748 30.7084 10.6853 30.069 10.6697 29.4108L8.67024 29.4582ZM8.88673 31.673C8.90841 31.7984 8.93354 31.9408 8.95676 32.0275L10.8886 31.5098C10.8935 31.528 10.8952 31.5372 10.8932 31.5276C10.8918 31.5212 10.8895 31.5096 10.886 31.4912C10.879 31.4547 10.8696 31.4024 10.8575 31.3324L8.88673 31.673ZM8.95676 32.0275C9.00721 32.2158 9.11115 32.5122 9.35966 32.7506C9.67634 33.0545 10.1047 33.1486 10.502 33.0421L9.98438 31.1102C10.0828 31.0839 10.2216 31.0695 10.3791 31.1083C10.5384 31.1476 10.661 31.2275 10.7443 31.3075C10.886 31.4434 10.9037 31.5662 10.8886 31.5098L8.95676 32.0275ZM10.1858 22.3185C9.83305 22.4131 9.60192 22.6441 9.47778 22.7901C9.33917 22.9532 9.22368 23.1431 9.12587 23.3299L10.8975 24.2579C10.9268 24.2019 10.9514 24.16 10.9708 24.1297C10.9803 24.1148 10.9879 24.1038 10.9935 24.0961C10.9991 24.0884 11.0019 24.0851 11.0018 24.0853C11.0017 24.0854 10.9975 24.0904 10.9888 24.0988C10.9802 24.1071 10.9655 24.1205 10.9441 24.1364C10.9036 24.1668 10.8231 24.2183 10.7034 24.2504L10.1858 22.3185ZM9.11927 23.3427C8.9008 23.7748 8.75454 24.3207 8.65029 24.9257L10.6213 25.2653C10.7115 24.7416 10.8158 24.4197 10.9041 24.2451L9.11927 23.3427ZM10.2606 25.8763C10.6653 25.5524 11.0196 25.2465 11.2185 24.9967L9.65397 23.7508C9.65475 23.7498 9.65175 23.7536 9.64356 23.7627C9.63553 23.7716 9.62407 23.7837 9.60852 23.7995C9.57704 23.8313 9.53403 23.8723 9.47739 23.9234C9.36363 24.026 9.20955 24.1558 9.01094 24.3148L10.2606 25.8763ZM11.2031 25.0156C11.5996 24.5418 11.8365 23.9198 11.6517 23.2302L9.71984 23.7478C9.71738 23.7387 9.71471 23.7235 9.71483 23.7045C9.71496 23.6855 9.71782 23.6703 9.72046 23.6609C9.72549 23.6431 9.72356 23.6672 9.66937 23.732L11.2031 25.0156ZM11.6517 23.2302C11.6074 23.0649 11.505 22.7756 11.2387 22.5497C10.9106 22.2714 10.5098 22.2317 10.1858 22.3185L10.7034 24.2504C10.6161 24.2738 10.4888 24.2907 10.339 24.2624C10.184 24.233 10.0493 24.1635 9.94497 24.0749C9.8466 23.9915 9.79109 23.9053 9.76246 23.8515C9.73387 23.7977 9.72273 23.7586 9.71984 23.7478L11.6517 23.2302ZM16.2941 27.5354L16.2297 26.5374C15.8672 26.5608 15.5458 26.779 15.3903 27.1073L16.2941 27.5354ZM12.9608 28.8116L12.4454 29.6686L12.453 29.6731L12.9608 28.8116ZM12.0742 27.5894L13.0432 27.3421C13.0415 27.3355 13.0398 27.329 13.038 27.3225L12.0742 27.5894ZM12.2681 25.4151L11.3729 24.9694L11.3729 24.9694L12.2681 25.4151ZM14.8733 23.9717L14.7448 24.9634L14.7491 24.9639L14.8733 23.9717ZM14.8019 24.6327L15.0608 25.5986L15.0724 25.5954L14.8019 24.6327ZM13.6165 25.5404L12.7461 25.0481L12.746 25.0482L13.6165 25.5404ZM13.9006 27.7212L13.3268 28.5402C13.3364 28.5469 13.346 28.5534 13.3558 28.5597L13.9006 27.7212ZM15.4333 27.414L16.1647 28.0959C16.3955 27.8484 16.4854 27.501 16.4037 27.1726C16.322 26.8442 16.0797 26.5794 15.7599 26.4688L15.4333 27.414ZM14.3877 26.2551L15.3537 25.9963C15.3519 25.9896 15.35 25.9829 15.3481 25.9763L14.3877 26.2551ZM14.491 25.3268L13.5999 24.873L13.5992 24.8743L14.491 25.3268ZM15.2665 24.7049L15.5253 25.6708C15.531 25.6693 15.5368 25.6677 15.5425 25.666L15.2665 24.7049ZM16.1168 24.7876L16.7222 23.9916L16.7222 23.9916L16.1168 24.7876ZM16.5976 26.543L15.6075 26.4026C15.5603 26.735 15.6831 27.0689 15.9345 27.2916C16.1858 27.5142 16.5321 27.5958 16.8564 27.5089L16.5976 26.543ZM16.6555 26.5275L16.9143 27.4934C16.9216 27.4914 16.9289 27.4894 16.9362 27.4873L16.6555 26.5275ZM17.3094 26.0313L18.1588 26.559C18.1645 26.5499 18.17 26.5406 18.1754 26.5313L17.3094 26.0313ZM17.4482 25.7767L16.5822 25.2767C16.5724 25.2937 16.5631 25.3109 16.5543 25.3284L17.4482 25.7767ZM17.7098 26.9076L18.527 27.4839C18.5301 27.4795 18.5332 27.4751 18.5362 27.4706L17.7098 26.9076ZM15.9069 26.4382L15.4069 27.3042C15.6887 27.4669 16.0321 27.4823 16.3273 27.3455C16.6226 27.2087 16.8328 26.9368 16.8908 26.6166L15.9069 26.4382ZM15.4782 25.611L16.4637 25.7807L16.4637 25.7807L15.4782 25.611ZM15.3903 27.1073C15.1536 27.607 14.8417 27.8521 14.4407 27.9595L14.9583 29.8914C15.9869 29.6158 16.738 28.9341 17.1978 27.9635L15.3903 27.1073ZM14.4407 27.9595C13.8857 28.1082 13.6083 28.0325 13.4686 27.9501L12.453 29.6731C13.2148 30.1221 14.0966 30.1223 14.9583 29.8914L14.4407 27.9595ZM13.4762 27.9546C13.2638 27.8269 13.121 27.6468 13.0432 27.3421L11.1053 27.8367C11.3045 28.6172 11.7527 29.2519 12.4454 29.6685L13.4762 27.9546ZM13.038 27.3225C12.8894 26.7861 12.9367 26.316 13.1633 25.8608L11.3729 24.9694C10.9175 25.8841 10.8355 26.8635 11.1105 27.8563L13.038 27.3225ZM13.1633 25.8608C13.3666 25.4526 13.6889 25.1793 14.2265 25.0353L13.7089 23.1034C12.6624 23.3839 11.8517 24.0078 11.3729 24.9694L13.1633 25.8608ZM14.2265 25.0353C14.5203 24.9566 14.6808 24.9551 14.7448 24.9634L15.0017 22.9799C14.5796 22.9253 14.1363 22.9889 13.7089 23.1034L14.2265 25.0353ZM14.7491 24.9639C14.925 24.9859 14.9864 25.009 14.9809 25.0067C14.9759 25.0047 14.9168 24.9808 14.8422 24.9163C14.7621 24.847 14.6481 24.7155 14.5937 24.5124L16.5256 23.9948C16.3816 23.4576 15.931 23.2348 15.7409 23.1567C15.5066 23.0605 15.2429 23.0101 14.9975 22.9794L14.7491 24.9639ZM14.5937 24.5124C14.5368 24.2999 14.5609 24.095 14.6252 23.9301C14.6836 23.7801 14.7666 23.6833 14.8139 23.6351C14.9007 23.5465 14.9708 23.5177 14.9436 23.5313C14.9049 23.5506 14.7831 23.5992 14.5315 23.6699L15.0724 25.5954C15.3535 25.5164 15.6243 25.427 15.8383 25.32C15.9373 25.2705 16.0987 25.1814 16.2418 25.0355C16.3821 24.8924 16.665 24.515 16.5256 23.9948L14.5937 24.5124ZM14.5431 23.6667C13.7636 23.8756 13.1442 24.3441 12.7461 25.0481L14.4869 26.0327C14.6132 25.8093 14.7842 25.6727 15.0607 25.5986L14.5431 23.6667ZM12.746 25.0482C12.3465 25.7548 12.2777 26.5328 12.4868 27.3132L14.4187 26.7955C14.331 26.4684 14.3714 26.2371 14.487 26.0326L12.746 25.0482ZM12.4868 27.3132C12.618 27.8028 12.8916 28.2353 13.3268 28.5402L14.4744 26.9022C14.4678 26.8976 14.4428 26.8855 14.4187 26.7955L12.4868 27.3132ZM13.3558 28.5597C13.8642 28.89 14.4352 28.9238 14.9615 28.7828L14.4439 26.8509C14.3895 26.8655 14.3747 26.8604 14.3888 26.8621C14.3956 26.8629 14.406 26.865 14.4181 26.8693C14.4301 26.8737 14.4395 26.8788 14.4454 26.8826L13.3558 28.5597ZM14.9615 28.7828C15.405 28.6639 15.8324 28.4523 16.1647 28.0959L14.7019 26.7321C14.6911 26.7437 14.6315 26.8006 14.4439 26.8509L14.9615 28.7828ZM15.7599 26.4688C15.5561 26.3984 15.4311 26.2851 15.3537 25.9963L13.4218 26.514C13.6585 27.3971 14.2305 28.0564 15.1067 28.3592L15.7599 26.4688ZM15.3481 25.9763C15.3363 25.9358 15.328 25.8871 15.3827 25.7793L13.5992 24.8743C13.3378 25.3895 13.2606 25.9597 13.4274 26.534L15.3481 25.9763ZM15.3821 25.7806C15.4131 25.7198 15.438 25.6942 15.5253 25.6708L15.0076 23.739C14.3865 23.9054 13.8945 24.2944 13.5999 24.873L15.3821 25.7806ZM15.5425 25.666C15.5878 25.653 15.6193 25.6475 15.6382 25.6452C15.657 25.643 15.6604 25.6444 15.6514 25.6436C15.6417 25.6426 15.6208 25.6393 15.5931 25.6288C15.5648 25.6182 15.5367 25.6027 15.5115 25.5836L16.7222 23.9916C16.1674 23.5697 15.5151 23.593 14.9904 23.7437L15.5425 25.666ZM15.5115 25.5836C15.5115 25.5836 15.5189 25.5885 15.5318 25.6094C15.5458 25.6321 15.5685 25.6774 15.5898 25.7571L17.5216 25.2394C17.3943 24.7643 17.1468 24.3146 16.7222 23.9916L15.5115 25.5836ZM15.5898 25.7571C15.6309 25.9105 15.6476 26.1196 15.6075 26.4026L17.5876 26.6834C17.6574 26.1916 17.6462 25.7041 17.5216 25.2394L15.5898 25.7571ZM16.8564 27.5089L16.9143 27.4934L16.3967 25.5616L16.3387 25.5771L16.8564 27.5089ZM16.9362 27.4873C17.4533 27.3361 17.8741 27.0173 18.1588 26.559L16.4599 25.5037C16.4428 25.5312 16.4307 25.5412 16.4257 25.545C16.4207 25.5489 16.4072 25.5582 16.3748 25.5677L16.9362 27.4873ZM18.1754 26.5313C18.2382 26.4227 18.2946 26.3197 18.3421 26.225L16.5543 25.3284C16.5298 25.3773 16.4937 25.4441 16.4434 25.5313L18.1754 26.5313ZM18.3142 26.2767C18.2796 26.3367 18.1462 26.5318 17.8576 26.6091L17.34 24.6773C16.9355 24.7857 16.7017 25.0698 16.5822 25.2767L18.3142 26.2767ZM17.8576 26.6091C17.675 26.6581 17.4661 26.6506 17.27 26.5667C17.0913 26.4902 16.9848 26.377 16.9334 26.3112C16.8447 26.1976 16.8355 26.1173 16.8535 26.1845L18.7853 25.6669C18.7464 25.5217 18.6719 25.288 18.5097 25.0802C18.4216 24.9674 18.2762 24.8218 18.0565 24.7278C17.8196 24.6265 17.5677 24.6163 17.34 24.6773L17.8576 26.6091ZM16.8535 26.1845C16.8812 26.2879 16.8787 26.3405 16.8771 26.3548C16.8764 26.3615 16.8758 26.3611 16.8775 26.3563C16.8794 26.3512 16.8818 26.3468 16.8834 26.3445L18.5362 27.4706C18.9226 26.9036 18.943 26.2553 18.7853 25.6669L16.8535 26.1845ZM16.8926 26.3312C16.8379 26.4088 16.7979 26.4272 16.7559 26.4385L17.2735 28.3703C17.7982 28.2297 18.2216 27.917 18.527 27.4839L16.8926 26.3312ZM16.7559 26.4385C16.5192 26.5019 16.3471 26.5299 16.2297 26.5374L16.3584 28.5333C16.6481 28.5146 16.9564 28.4553 17.2735 28.3703L16.7559 26.4385ZM16.8908 26.6166C16.9601 26.2348 16.9587 25.8432 16.8558 25.4592L14.924 25.9769C14.9384 26.0308 14.9484 26.1192 14.9229 26.2598L16.8908 26.6166ZM16.8558 25.4592C16.8069 25.2765 16.7015 24.9792 16.4412 24.7439C16.1145 24.4488 15.6953 24.3829 15.3306 24.4806L15.8482 26.4125C15.7582 26.4366 15.6275 26.4524 15.4756 26.4194C15.32 26.3856 15.1928 26.3115 15.1004 26.228C14.9402 26.0833 14.9143 25.9406 14.924 25.9769L16.8558 25.4592ZM15.3306 24.4806C14.7002 24.6496 14.5319 25.2135 14.4927 25.4412L16.4637 25.7807C16.4575 25.8164 16.4345 25.9295 16.3463 26.0597C16.2449 26.2096 16.0761 26.3514 15.8482 26.4125L15.3306 24.4806ZM14.4927 25.4412C14.4566 25.6507 14.4543 25.8854 14.519 26.1268L16.4509 25.6092C16.4741 25.696 16.4673 25.7594 16.4637 25.7807L14.4927 25.4412ZM14.519 26.1268C14.65 26.6157 14.9436 27.0367 15.4069 27.3042L16.4069 25.5722C16.4097 25.5738 16.4161 25.5779 16.4242 25.5851C16.4324 25.5923 16.4399 25.6006 16.446 25.6089C16.4593 25.6267 16.457 25.6322 16.4509 25.6092L14.519 26.1268ZM18.8318 25.9961L17.8659 26.2549C17.8701 26.2707 17.8748 26.2865 17.8798 26.3021L18.8318 25.9961ZM19.2055 27.159L20.1715 26.9002C20.1672 26.8844 20.1626 26.8686 20.1576 26.853L19.2055 27.159ZM19.0753 27.6391L19.8659 28.2515L19.0753 27.6391ZM18.0623 27.838L17.2342 28.3986C17.2405 28.4079 17.247 28.4172 17.2537 28.4263L18.0623 27.838ZM17.4508 25.5172L16.454 25.5976L16.4552 25.611L17.4508 25.5172ZM17.5433 24.2397L18.5217 24.4466C18.6129 24.0151 18.4107 23.5748 18.024 23.3628L17.5433 24.2397ZM18.1532 22.9996L17.5195 23.7732C17.5233 23.7764 17.5272 23.7795 17.531 23.7826L18.1532 22.9996ZM18.5963 23.5331L17.722 24.0185C17.8843 24.3108 18.1819 24.5027 18.5152 24.5298L18.5963 23.5331ZM19.5453 23.1339L18.8819 22.3857L18.8819 22.3857L19.5453 23.1339ZM19.7628 22.941L20.4263 23.6892L20.4263 23.6892L19.7628 22.941ZM20.7304 23.4997L21.7298 23.4647C21.7232 23.2784 21.6648 23.0976 21.561 22.9428L20.7304 23.4997ZM20.7313 24.2759L19.7319 24.2411C19.7316 24.2496 19.7314 24.2582 19.7314 24.2667L20.7313 24.2759ZM20.7247 25.1783L19.7247 25.1722L20.7247 25.1783ZM20.7584 25.8836L19.7796 26.0885C19.7834 26.1066 19.7876 26.1246 19.7924 26.1425L20.7584 25.8836ZM21.2168 25.7401L20.3896 25.1782L20.3896 25.1782L21.2168 25.7401ZM21.5357 25.2302L22.4017 25.7302C22.4054 25.7238 22.4091 25.7173 22.4126 25.7108L21.5357 25.2302ZM21.8134 24.721L20.9474 24.221C20.9429 24.2288 20.9385 24.2366 20.9342 24.2445L21.8134 24.721ZM22.0014 26.2339L21.1128 25.7749L21.1091 25.7823L22.0014 26.2339ZM20.8392 27.2285L20.5928 26.2593L20.5804 26.2626L20.8392 27.2285ZM20.0769 27.0497L20.7607 26.32L20.0769 27.0497ZM19.6122 26.2425L18.6463 26.5013C18.6479 26.5074 18.6496 26.5135 18.6513 26.5195L19.6122 26.2425ZM19.5511 24.1987L20.5308 24.3992C20.6143 23.991 20.4361 23.5738 20.0834 23.3521C19.7307 23.1304 19.2775 23.1505 18.9458 23.4027L19.5511 24.1987ZM18.7096 24.4966L18.6131 23.5013C18.0894 23.5521 17.6946 24 17.71 24.5259L18.7096 24.4966ZM18.735 25.287L19.7346 25.2578L19.7344 25.252L18.735 25.287ZM17.8798 26.3021L18.2535 27.465L20.1576 26.853L19.7839 25.6901L17.8798 26.3021ZM18.2396 27.4178C18.2129 27.3182 18.2161 27.2171 18.2389 27.1332C18.2595 27.0573 18.2886 27.0218 18.2848 27.0266L19.8659 28.2515C20.1212 27.9219 20.3175 27.4453 20.1715 26.9002L18.2396 27.4178ZM18.2848 27.0266C18.307 26.998 18.3242 26.9888 18.3181 26.9924C18.3099 26.9972 18.2778 27.0142 18.2089 27.0326L18.7265 28.9645C19.1377 28.8543 19.5622 28.6435 19.8659 28.2515L18.2848 27.0266ZM18.2089 27.0326C18.3041 27.0071 18.4532 26.9974 18.6138 27.0611C18.7653 27.1211 18.8447 27.2137 18.871 27.2497L17.2537 28.4263C17.3892 28.6125 17.5908 28.807 17.8774 28.9205C18.1732 29.0377 18.4703 29.0332 18.7265 28.9645L18.2089 27.0326ZM18.8904 27.2775C18.8915 27.2791 18.8732 27.2513 18.8431 27.1758C18.814 27.1029 18.7805 27.0022 18.7446 26.8684L16.8128 27.386C16.9083 27.7427 17.0374 28.1078 17.2342 28.3986L18.8904 27.2775ZM18.7446 26.8684C18.5689 26.2125 18.4761 25.7384 18.4464 25.4234L16.4552 25.611C16.5004 26.0904 16.6262 26.6897 16.8128 27.386L18.7446 26.8684ZM18.4476 25.4368C18.4235 25.1385 18.4449 24.8099 18.5217 24.4466L16.565 24.0329C16.453 24.5622 16.4127 25.0852 16.4541 25.5976L18.4476 25.4368ZM18.024 23.3628C17.9569 23.326 17.9052 23.2937 17.8664 23.2666C17.8273 23.2393 17.8057 23.2204 17.7963 23.2114C17.7723 23.1884 17.8337 23.2369 17.8682 23.3659L15.9364 23.8835C16.1061 24.517 16.6586 24.8952 17.0627 25.1167L18.024 23.3628ZM17.8682 23.3659C17.8553 23.3176 17.9015 23.4512 17.7936 23.6235C17.6955 23.7801 17.5837 23.7838 17.6832 23.7571L17.1655 21.8252C16.8014 21.9228 16.3707 22.1275 16.0986 22.5619C15.8167 23.012 15.8337 23.5004 15.9364 23.8835L17.8682 23.3659ZM17.6832 23.7571C17.6568 23.7642 17.6256 23.7686 17.5922 23.7682C17.5589 23.7678 17.5309 23.7627 17.5102 23.7568C17.4706 23.7455 17.474 23.736 17.5195 23.7732L18.7869 22.2261C18.3719 21.8862 17.8047 21.654 17.1655 21.8252L17.6832 23.7571ZM17.531 23.7826C17.5934 23.8321 17.659 23.905 17.722 24.0185L19.4706 23.0478C19.2935 22.7287 19.0637 22.4459 18.7753 22.2167L17.531 23.7826ZM18.5152 24.5298C18.7647 24.5501 19.0022 24.5114 19.2062 24.4568L18.6885 22.5249C18.6738 22.5289 18.6622 22.5315 18.6537 22.5332C18.6451 22.5349 18.6401 22.5356 18.6386 22.5358C18.637 22.536 18.6395 22.5356 18.6458 22.5354C18.6521 22.5352 18.6628 22.5352 18.6775 22.5364L18.5152 24.5298ZM19.2062 24.4568C19.5962 24.3523 19.9306 24.1288 20.2088 23.8821L18.8819 22.3857C18.8129 22.4469 18.7602 22.484 18.7244 22.5054C18.6886 22.5268 18.677 22.528 18.6885 22.5249L19.2062 24.4568ZM20.2088 23.8821L20.4263 23.6892L19.0994 22.1928L18.8819 22.3857L20.2088 23.8821ZM20.4263 23.6892C20.4235 23.6917 20.4063 23.7068 20.3741 23.7261C20.3419 23.7454 20.2865 23.7739 20.209 23.7947L19.6913 21.8628C19.428 21.9334 19.2301 22.0769 19.0994 22.1928L20.4263 23.6892ZM20.209 23.7947C20.0054 23.8492 19.8359 23.8112 19.7418 23.7746C19.657 23.7417 19.6204 23.7061 19.6333 23.7172C19.6425 23.7251 19.6722 23.753 19.722 23.8135C19.7706 23.8725 19.8298 23.9522 19.8998 24.0565L21.561 22.9428C21.3755 22.6661 21.1681 22.3992 20.9373 22.2007C20.7465 22.0367 20.2869 21.7032 19.6913 21.8628L20.209 23.7947ZM19.731 23.5346C19.7396 23.7795 19.7398 24.015 19.7319 24.2411L21.7307 24.3106C21.7403 24.0352 21.7399 23.7531 21.7298 23.4647L19.731 23.5346ZM19.7314 24.2667C19.7291 24.5171 19.7268 24.819 19.7247 25.1722L21.7246 25.1844C21.7268 24.8325 21.729 24.5328 21.7313 24.285L19.7314 24.2667ZM19.7247 25.1722C19.7226 25.5083 19.7296 25.8497 19.7796 26.0885L21.7372 25.6788C21.7416 25.7 21.7353 25.676 21.7303 25.5714C21.7259 25.4782 21.7236 25.3507 21.7246 25.1844L19.7247 25.1722ZM19.7924 26.1425C19.8267 26.2705 19.9122 26.5291 20.1476 26.7417C20.4492 27.0142 20.8381 27.0735 21.1674 26.9853L20.6498 25.0535C20.7576 25.0246 20.9047 25.0081 21.0716 25.0444C21.2424 25.0815 21.3834 25.1629 21.4883 25.2576C21.6735 25.425 21.7193 25.6063 21.7243 25.6248L19.7924 26.1425ZM21.1674 26.9853C21.6321 26.8608 21.9096 26.4999 22.0441 26.302L20.3896 25.1782C20.3636 25.2165 20.3611 25.2123 20.3866 25.1891C20.41 25.1679 20.497 25.0944 20.6498 25.0535L21.1674 26.9853ZM22.0441 26.302C22.1675 26.1202 22.2867 25.9294 22.4017 25.7302L20.6697 24.7302C20.5773 24.8902 20.4839 25.0394 20.3896 25.1782L22.0441 26.302ZM22.4126 25.7108C22.5152 25.5236 22.6086 25.3525 22.6926 25.1974L20.9342 24.2445C20.8519 24.3963 20.7602 24.5646 20.6588 24.7495L22.4126 25.7108ZM22.6794 25.221C22.713 25.1627 22.7228 25.1532 22.7099 25.1691C22.7035 25.1771 22.6753 25.2117 22.6256 25.2541C22.5996 25.2762 22.5599 25.3072 22.5066 25.3387C22.454 25.3698 22.3758 25.4088 22.2742 25.4361L21.7565 23.5042C21.5425 23.5616 21.3975 23.673 21.3291 23.7312C21.2513 23.7974 21.1923 23.8649 21.1522 23.9147C21.072 24.0143 21.0033 24.1241 20.9474 24.221L22.6794 25.221ZM22.2742 25.4361C22.0842 25.487 21.8702 25.476 21.6734 25.3884C21.4958 25.3094 21.3921 25.195 21.3441 25.1322C21.2607 25.023 21.2533 24.949 21.2727 25.0211L23.2045 24.5035C23.1652 24.3567 23.0912 24.1246 22.9334 23.918C22.8482 23.8065 22.7054 23.6586 22.4866 23.5612C22.2487 23.4553 21.9916 23.4412 21.7565 23.5042L22.2742 25.4361ZM21.2727 25.0211C21.3092 25.1576 21.3125 25.3885 21.1129 25.775L22.8898 26.6928C23.2447 26.0058 23.4061 25.2557 23.2045 24.5035L21.2727 25.0211ZM21.1091 25.7823C20.9467 26.1032 20.7727 26.2136 20.5928 26.2594L21.0856 28.1977C21.9137 27.9872 22.5145 27.4344 22.8936 26.6854L21.1091 25.7823ZM20.5804 26.2626C20.5636 26.2671 20.5954 26.2559 20.6549 26.2698C20.6827 26.2763 20.7079 26.2865 20.7284 26.2979C20.7484 26.309 20.7589 26.3183 20.7607 26.32L19.3932 27.7795C19.874 28.2299 20.4905 28.3573 21.098 28.1945L20.5804 26.2626ZM20.7607 26.32C20.706 26.2688 20.6319 26.1695 20.5731 25.9655L18.6513 26.5195C18.7883 26.9947 19.024 27.4335 19.3932 27.7795L20.7607 26.32ZM20.5781 25.9837C20.4372 25.4577 20.4215 24.9336 20.5308 24.3992L18.5714 23.9982C18.3999 24.8366 18.4249 25.6751 18.6463 26.5013L20.5781 25.9837ZM18.9458 23.4027C18.9397 23.4073 18.9095 23.4285 18.8326 23.4491L19.3503 25.381C19.6341 25.3049 19.9102 25.1819 20.1564 24.9947L18.9458 23.4027ZM18.8326 23.4491C18.7565 23.4695 18.6986 23.4835 18.6566 23.4925C18.6108 23.5022 18.6001 23.5026 18.6131 23.5013L18.8061 25.492C18.9754 25.4756 19.1714 25.4289 19.3503 25.381L18.8326 23.4491ZM17.71 24.5259C17.7177 24.7881 17.7262 25.0535 17.7356 25.322L19.7344 25.252C19.7251 24.9872 19.7167 24.7257 19.7091 24.4674L17.71 24.5259ZM17.7354 25.3162C17.7449 25.6403 17.7856 25.9553 17.8659 26.2549L19.7977 25.7373C19.7642 25.6119 19.7403 25.4541 19.7346 25.2578L17.7354 25.3162ZM25.8967 22.8814L26.8499 23.1841L26.8525 23.1756L25.8967 22.8814ZM25.7319 24.0437L24.7322 24.0686C24.7342 24.1477 24.7455 24.2262 24.766 24.3025L25.7319 24.0437ZM26.0149 24.7133L25.1535 25.2212C25.1578 25.2285 25.1622 25.2358 25.1667 25.2431L26.0149 24.7133ZM25.6029 26.0349L26.1912 26.8436L26.1938 26.8417L25.6029 26.0349ZM24.9883 25.9822L24.1602 26.5428C24.1665 26.5521 24.173 26.5614 24.1797 26.5705L24.9883 25.9822ZM24.5221 24.5128L23.5395 24.6987C23.541 24.7064 23.5426 24.7141 23.5442 24.7218L24.5221 24.5128ZM24.3815 23.7947L23.3965 23.9677C23.3981 23.9767 23.3998 23.9857 23.4017 23.9946L24.3815 23.7947ZM24.2771 23.2119L23.2878 23.3583C23.2896 23.3698 23.2915 23.3814 23.2936 23.3929L24.2771 23.2119ZM23.3034 23.4417L24.2708 23.6948L24.2723 23.6891L23.3034 23.4417ZM23.5035 25.3862L22.642 25.8941C22.6464 25.9015 22.6508 25.9088 22.6553 25.916L23.5035 25.3862ZM23.0915 26.7079L23.6798 27.5165L23.6824 27.5146L23.0915 26.7079ZM22.4769 26.6551L21.6488 27.2157C21.6551 27.225 21.6616 27.2343 21.6683 27.2435L22.4769 26.6551ZM21.7586 23.8971L22.7547 23.8082L22.7534 23.7954L21.7586 23.8971ZM21.9599 22.021L21.0074 21.7164L21.0065 21.7193L21.9599 22.021ZM22.9931 22.0134L22.2548 22.6878C22.2639 22.6978 22.2733 22.7077 22.2829 22.7173L22.9931 22.0134ZM23.1763 22.2334L22.3418 22.7844C22.5437 23.0902 22.8965 23.261 23.2615 23.2298C23.6265 23.1986 23.9453 22.9703 24.0923 22.6348L23.1763 22.2334ZM24.9313 21.4423L24.5014 22.3451C24.5066 22.3476 24.5119 22.35 24.5171 22.3524L24.9313 21.4423ZM25.472 22.1463L24.5061 22.4051C24.6159 22.8151 24.9725 23.111 25.3957 23.1434C25.8189 23.1758 26.2164 22.9375 26.3873 22.5491L25.472 22.1463ZM27.579 21.0848L27.079 21.9508L27.079 21.9508L27.579 21.0848ZM28.1617 22.4091L29.1583 22.3273L29.1583 22.3273L28.1617 22.4091ZM28.1869 23.0442L27.1869 23.0369C27.1869 23.0476 27.1869 23.0584 27.1872 23.0692L28.1869 23.0442ZM28.1959 23.5802L29.196 23.5846L29.1959 23.5736L28.1959 23.5802ZM28.6451 23.7497L27.8179 23.1878L27.8179 23.1878L28.6451 23.7497ZM28.964 23.2398L29.83 23.7398C29.8337 23.7334 29.8374 23.7269 29.8409 23.7204L28.964 23.2398ZM29.2417 22.7306L28.3756 22.2306C28.3711 22.2384 28.3667 22.2462 28.3624 22.2541L29.2417 22.7306ZM29.333 24.2693L28.4858 23.7381L28.4821 23.7441L29.333 24.2693ZM27.7434 22.2003C27.6647 21.9069 27.4707 21.5459 27.0595 21.3456C26.6805 21.161 26.3066 21.2083 26.0661 21.2728L26.5838 23.2046C26.5782 23.2061 26.5376 23.2167 26.4709 23.2154C26.4011 23.214 26.2976 23.1991 26.1837 23.1436C25.9233 23.0168 25.8332 22.7988 25.8115 22.7179L27.7434 22.2003ZM26.0661 21.2728C25.6564 21.3826 25.4026 21.6647 25.2601 21.8786C25.1141 22.0978 25.0144 22.3486 24.941 22.5873L26.8525 23.1756C26.8734 23.1078 26.8919 23.0588 26.9065 23.0253C26.9215 22.991 26.9287 22.9812 26.9245 22.9875C26.9209 22.993 26.8969 23.0283 26.8451 23.0716C26.7908 23.117 26.7037 23.1725 26.5838 23.2046L26.0661 21.2728ZM24.9436 22.5787C24.7901 23.0624 24.7196 23.5605 24.7322 24.0686L26.7316 24.0187C26.7244 23.7316 26.7638 23.4549 26.8498 23.1841L24.9436 22.5787ZM24.766 24.3025L24.7712 24.3218L26.703 23.8042L26.6979 23.7849L24.766 24.3025ZM24.7712 24.3218C24.8554 24.6363 24.9855 24.9363 25.1535 25.2212L26.8763 24.2054C26.7912 24.0611 26.7361 23.9276 26.703 23.8042L24.7712 24.3218ZM25.1667 25.2431C25.225 25.3363 25.263 25.4029 25.2857 25.4468C25.2911 25.4572 25.2951 25.4652 25.2978 25.471C25.2992 25.4739 25.3002 25.4761 25.3009 25.4776C25.3016 25.4791 25.3019 25.4799 25.3019 25.4798C25.3019 25.4798 25.3015 25.4788 25.3007 25.477C25.3 25.4751 25.2989 25.4721 25.2974 25.4681C25.2947 25.4604 25.2899 25.4463 25.2846 25.4266L27.2165 24.909C27.1483 24.6546 26.9886 24.3845 26.863 24.1835L25.1667 25.2431ZM25.2846 25.4266C25.2425 25.2696 25.2615 25.1344 25.2878 25.0495C25.3115 24.9729 25.3398 24.9391 25.3314 24.9504C25.3246 24.9596 25.2994 24.9903 25.2431 25.042C25.188 25.0925 25.1124 25.1547 25.012 25.2282L26.1938 26.8417C26.4722 26.6378 26.7397 26.4072 26.9338 26.1471C27.1164 25.9027 27.3625 25.4539 27.2165 24.909L25.2846 25.4266ZM25.0146 25.2263C25.0111 25.2289 25.0183 25.2232 25.0362 25.214C25.054 25.2048 25.0872 25.1896 25.1349 25.1768L25.6525 27.1087C25.8721 27.0499 26.053 26.9441 26.1912 26.8436L25.0146 25.2263ZM25.1349 25.1768C25.2301 25.1513 25.3792 25.1416 25.5398 25.2052C25.6913 25.2652 25.7707 25.3579 25.7969 25.3939L24.1797 26.5705C24.3152 26.7567 24.5168 26.9512 24.8034 27.0647C25.0991 27.1819 25.3962 27.1774 25.6525 27.1087L25.1349 25.1768ZM25.8164 25.4217C25.802 25.4003 25.7484 25.3028 25.6861 25.0705L23.7543 25.5882C23.8439 25.9226 23.969 26.2603 24.1602 26.5428L25.8164 25.4217ZM25.6861 25.0705C25.6123 24.7948 25.5504 24.5394 25.5 24.3038L23.5442 24.7218C23.6027 24.9954 23.6729 25.2843 23.7543 25.5882L25.6861 25.0705ZM25.5047 24.3269C25.4543 24.0604 25.4065 23.8163 25.3613 23.5948L23.4017 23.9946C23.4446 24.2051 23.4905 24.4396 23.5395 24.6987L25.5047 24.3269ZM25.3664 23.6218C25.3267 23.3959 25.2914 23.1988 25.2606 23.0309L23.2936 23.3929C23.3232 23.5539 23.3575 23.7453 23.3965 23.9677L25.3664 23.6218ZM25.2663 23.0655C25.2382 22.8755 25.205 22.6954 25.1633 22.5396L23.2314 23.0573C23.2449 23.1076 23.2649 23.203 23.2878 23.3583L25.2663 23.0655ZM25.1633 22.5396C25.0997 22.3022 24.9514 21.9579 24.5959 21.7301C24.2204 21.4896 23.8239 21.5112 23.5511 21.5843L24.0687 23.5162C23.9955 23.5358 23.7635 23.5721 23.5171 23.4142C23.2907 23.2692 23.2364 23.0757 23.2314 23.0573L25.1633 22.5396ZM23.5511 21.5843C23.0673 21.714 22.7986 22.0826 22.6641 22.3192C22.5168 22.5784 22.4135 22.8848 22.3345 23.1944L24.2723 23.6891C24.3004 23.5788 24.3274 23.4921 24.3517 23.4257C24.3765 23.3581 24.3949 23.3216 24.403 23.3073C24.4123 23.2909 24.3999 23.3181 24.3553 23.3605C24.3079 23.4056 24.2134 23.4774 24.0687 23.5162L23.5511 21.5843ZM22.3359 23.1887C22.186 23.7618 22.0948 24.3793 22.2391 24.9175L24.1709 24.3998C24.173 24.4077 24.16 24.36 24.1707 24.2273C24.1811 24.0992 24.2109 23.924 24.2708 23.6948L22.3359 23.1887ZM22.2391 24.9175C22.3321 25.2647 22.4643 25.5927 22.642 25.8941L24.3649 24.8783C24.2896 24.7506 24.2228 24.5936 24.1709 24.3998L22.2391 24.9175ZM22.6553 25.916C22.7136 26.0092 22.7516 26.0759 22.7743 26.1198C22.7797 26.1301 22.7837 26.1381 22.7864 26.144C22.7878 26.1468 22.7888 26.149 22.7895 26.1505C22.7902 26.1521 22.7905 26.1528 22.7905 26.1528C22.7905 26.1527 22.7901 26.1518 22.7893 26.1499C22.7886 26.148 22.7875 26.145 22.786 26.141C22.7833 26.1334 22.7785 26.1192 22.7732 26.0995L24.705 25.5819C24.6369 25.3275 24.4771 25.0574 24.3516 24.8564L22.6553 25.916ZM22.7732 26.0995C22.7311 25.9426 22.7501 25.8074 22.7763 25.7224C22.8001 25.6458 22.8284 25.612 22.82 25.6233C22.8132 25.6325 22.788 25.6632 22.7317 25.7149C22.6766 25.7655 22.601 25.8276 22.5006 25.9011L23.6824 27.5146C23.9608 27.3107 24.2282 27.0801 24.4224 26.8201C24.605 26.5757 24.8511 26.1268 24.705 25.5819L22.7732 26.0995ZM22.5032 25.8992C22.4997 25.9018 22.5069 25.8961 22.5248 25.8869C22.5426 25.8777 22.5758 25.8625 22.6235 25.8498L23.1411 27.7816C23.3607 27.7228 23.5416 27.617 23.6798 27.5165L22.5032 25.8992ZM22.6235 25.8498C22.7187 25.8242 22.8678 25.8145 23.0284 25.8782C23.1799 25.9382 23.2593 26.0308 23.2855 26.0668L21.6683 27.2435C21.8037 27.4297 22.0053 27.6241 22.292 27.7376C22.5877 27.8548 22.8848 27.8503 23.1411 27.7816L22.6235 25.8498ZM23.305 26.0946C23.3092 26.1008 23.2905 26.0734 23.2572 25.9887C23.2256 25.908 23.1888 25.796 23.1488 25.6469L21.217 26.1645C21.3168 26.537 21.4489 26.9204 21.6488 27.2157L23.305 26.0946ZM23.1488 25.6469C22.9052 24.7377 22.7842 24.14 22.7546 23.8083L20.7625 23.9859C20.8087 24.5035 20.9706 25.2449 21.217 26.1645L23.1488 25.6469ZM22.7534 23.7954C22.7041 23.3127 22.7545 22.8245 22.9133 22.3228L21.0065 21.7193C20.7691 22.4695 20.6854 23.232 20.7638 23.9988L22.7534 23.7954ZM22.9124 22.3257C22.9216 22.2968 22.9138 22.338 22.8602 22.4034C22.798 22.4793 22.6856 22.572 22.523 22.6156L22.0053 20.6837C21.3818 20.8508 21.1155 21.3784 21.0074 21.7164L22.9124 22.3257ZM22.523 22.6156C22.4403 22.6377 22.3595 22.6404 22.2895 22.6305C22.2224 22.6211 22.178 22.602 22.1593 22.5927C22.1413 22.5837 22.1424 22.5815 22.1622 22.5976C22.1816 22.6134 22.2126 22.6417 22.2548 22.6878L23.7315 21.339C23.4203 20.9983 22.8067 20.469 22.0053 20.6837L22.523 22.6156ZM22.2829 22.7173C22.3241 22.759 22.3399 22.7816 22.3418 22.7844L24.0108 21.6825C23.9198 21.5446 23.8134 21.4205 23.7034 21.3094L22.2829 22.7173ZM24.0923 22.6348C24.2007 22.3872 24.3011 22.3462 24.3713 22.3274L23.8537 20.3955C23.0868 20.601 22.5631 21.1413 22.2604 21.8321L24.0923 22.6348ZM24.3713 22.3274C24.4088 22.3173 24.438 22.3149 24.5014 22.3451L25.3613 20.5394C24.8867 20.3134 24.37 20.2572 23.8537 20.3955L24.3713 22.3274ZM24.5171 22.3524C24.5266 22.3568 24.5274 22.3582 24.5227 22.3547C24.5176 22.351 24.5094 22.344 24.5004 22.3336C24.4914 22.3231 24.4848 22.3127 24.4805 22.3043C24.4764 22.2963 24.4762 22.2936 24.4776 22.2989L26.4094 21.7812C26.2558 21.2077 25.8772 20.774 25.3456 20.5321L24.5171 22.3524ZM24.4776 22.2989L24.5061 22.4051L26.4379 21.8875L26.4094 21.7812L24.4776 22.2989ZM26.3873 22.5491C26.5418 22.1981 26.7336 22.0567 26.9733 21.9925L26.4557 20.0606C25.5621 20.3001 24.9256 20.9053 24.5567 21.7435L26.3873 22.5491ZM26.9733 21.9925C27.0661 21.9676 27.1131 21.9682 27.1243 21.969C27.129 21.9693 27.1252 21.9695 27.1153 21.9666C27.105 21.9636 27.0922 21.9584 27.079 21.9508L28.079 20.2188C27.5474 19.9118 26.9641 19.9244 26.4557 20.0606L26.9733 21.9925ZM27.079 21.9508C27.0831 21.9532 27.0822 21.9531 27.0784 21.9497C27.0744 21.9463 27.0696 21.9413 27.0651 21.9353C27.0606 21.9294 27.0583 21.925 27.0577 21.9238C27.0572 21.9227 27.0592 21.9267 27.0622 21.9376L28.994 21.42C28.8573 20.9099 28.5463 20.4885 28.079 20.2188L27.079 21.9508ZM27.0622 21.9376C27.1207 22.156 27.1526 22.3394 27.165 22.491L29.1583 22.3273C29.1342 22.0332 29.077 21.7297 28.994 21.42L27.0622 21.9376ZM27.165 22.491C27.1812 22.6875 27.1882 22.8693 27.1869 23.0369L29.1869 23.0516C29.1886 22.8181 29.1788 22.5765 29.1583 22.3273L27.165 22.491ZM27.1872 23.0692C27.1921 23.2634 27.1949 23.4357 27.1959 23.5868L29.1959 23.5736C29.1948 23.4077 29.1917 23.2228 29.1866 23.0193L27.1872 23.0692ZM27.1959 23.5757C27.1951 23.7606 27.2062 23.9819 27.2626 24.1926L29.1945 23.675C29.1987 23.6906 29.2003 23.7 29.2005 23.7016C29.2008 23.7033 29.2002 23.7 29.1993 23.6907C29.1975 23.6713 29.1957 23.637 29.1959 23.5846L27.1959 23.5757ZM27.2626 24.1926C27.2936 24.3081 27.3757 24.5599 27.611 24.7667C27.9109 25.0302 28.2886 25.0772 28.5957 24.9949L28.0781 23.0631C28.1865 23.034 28.3339 23.0168 28.5016 23.0511C28.6739 23.0863 28.8197 23.1663 28.9313 23.2644C29.1305 23.4394 29.1842 23.6368 29.1945 23.675L27.2626 24.1926ZM28.5957 24.9949C29.0604 24.8704 29.3379 24.5095 29.4723 24.3116L27.8179 23.1878C27.7918 23.2261 27.7893 23.2219 27.8149 23.1987C27.8383 23.1775 27.9253 23.104 28.0781 23.0631L28.5957 24.9949ZM29.4723 24.3116C29.5958 24.1298 29.715 23.939 29.83 23.7398L28.098 22.7398C28.0056 22.8998 27.9122 23.049 27.8179 23.1878L29.4723 24.3116ZM29.8409 23.7204C29.9435 23.5332 30.0368 23.3621 30.1209 23.207L28.3624 22.2541C28.2802 22.4059 28.1884 22.5742 28.0871 22.7591L29.8409 23.7204ZM30.1077 23.2306C30.1413 23.1723 30.151 23.1628 30.1382 23.1787C30.1318 23.1867 30.1036 23.2213 30.0539 23.2637C30.0279 23.2858 29.9881 23.3168 29.9349 23.3483C29.8823 23.3794 29.804 23.4184 29.7024 23.4457L29.1848 21.5138C28.9707 21.5712 28.8258 21.6826 28.7574 21.7408C28.6796 21.807 28.6205 21.8745 28.5804 21.9243C28.5003 22.0239 28.4316 22.1337 28.3756 22.2306L30.1077 23.2306ZM29.7024 23.4457C29.5124 23.4966 29.2985 23.4856 29.1017 23.398C28.924 23.319 28.8204 23.2046 28.7724 23.1418C28.689 23.0326 28.6816 22.9586 28.7009 23.0307L30.6328 22.5131C30.5934 22.3663 30.5195 22.1342 30.3617 21.9276C30.2765 21.8161 30.1337 21.6682 29.9149 21.5708C29.677 21.4649 29.4199 21.4508 29.1848 21.5138L29.7024 23.4457ZM28.7009 23.0307C28.7255 23.1225 28.7401 23.3326 28.4858 23.7381L30.1802 24.8006C30.6126 24.1111 30.8498 23.3229 30.6328 22.5131L28.7009 23.0307ZM28.4821 23.7441C28.2504 24.1195 28.0167 24.2701 27.7961 24.3292L28.3138 26.261C29.1236 26.044 29.7419 25.5108 30.184 24.7946L28.4821 23.7441ZM27.7961 24.3292C27.8316 24.3197 27.9111 24.3089 28.0091 24.3374C28.105 24.3653 28.1577 24.4131 28.1704 24.4264C28.1788 24.4351 28.1555 24.4133 28.1157 24.3294C28.0768 24.2474 28.0318 24.1267 27.9864 23.9573L26.0545 24.4749C26.1828 24.9535 26.3802 25.4491 26.7268 25.8106C26.912 26.0037 27.1519 26.1709 27.4499 26.2576C27.7501 26.3451 28.0465 26.3326 28.3138 26.261L27.7961 24.3292ZM27.9864 23.9573C27.9535 23.8347 27.916 23.6049 27.8884 23.2343L25.8939 23.3829C25.9248 23.7972 25.9735 24.1725 26.0545 24.4749L27.9864 23.9573ZM27.8884 23.2343C27.8586 22.8349 27.816 22.4714 27.7434 22.2003L25.8115 22.7179C25.832 22.7946 25.8652 22.9974 25.8939 23.3829L27.8884 23.2343ZM30.6443 19.5595L30.9031 20.5254C30.9079 20.5241 30.9127 20.5228 30.9175 20.5214L30.6443 19.5595ZM31.6749 19.5422L31.2804 20.4611C31.2862 20.4636 31.2921 20.466 31.2979 20.4684L31.6749 19.5422ZM32.1121 21.0193L31.2092 20.5894L31.2081 20.5917L32.1121 21.0193ZM31.5673 21.6519L31.0102 20.8214C30.726 21.0121 30.559 21.3349 30.5676 21.677C30.5762 22.0192 30.7592 22.3332 31.0527 22.5093L31.5673 21.6519ZM32.2274 22.1065L31.6059 22.8899C31.6113 22.8942 31.6167 22.8984 31.6221 22.9025L32.2274 22.1065ZM32.3847 23.814L33.1416 24.4677L33.1499 24.4579L32.3847 23.814ZM29.5906 24.5523L29.1845 25.4663L29.1965 25.4714L29.5906 24.5523ZM28.9136 22.9531L27.9553 22.6672C27.9535 22.6732 27.9518 22.6793 27.9501 22.6853L28.9136 22.9531ZM29.5585 22.5007L28.8546 23.211C28.8637 23.2201 28.8731 23.229 28.8826 23.2377L29.5585 22.5007ZM29.9805 23.0709L29.152 23.631L29.1543 23.6343L29.9805 23.0709ZM30.301 23.3785L29.751 24.2137L29.7573 24.2177L30.301 23.3785ZM31.5372 23.4717L31.7961 24.4376C32.1038 24.3551 32.3539 24.1309 32.4693 23.8339C32.5847 23.5369 32.5517 23.2027 32.3804 22.934L31.5372 23.4717ZM30.9923 22.9448L30.4606 23.7917C30.471 23.7983 30.4816 23.8046 30.4923 23.8108L30.9923 22.9448ZM29.7636 22.1455L29.1034 22.8967C29.1074 22.9002 29.1114 22.9036 29.1154 22.907L29.7636 22.1455ZM29.608 20.2513L28.8082 19.651C28.8023 19.6589 28.7965 19.6668 28.7908 19.6749L29.608 20.2513ZM31.0844 21.3568L30.5414 22.1965C30.7767 22.3487 31.0651 22.3952 31.3363 22.3246C31.6075 22.254 31.8367 22.0728 31.968 21.8252L31.0844 21.3568ZM31.1509 20.4072L30.5584 21.2128C30.5881 21.2346 30.619 21.2548 30.6509 21.2733L31.1509 20.4072ZM30.6042 20.4916L30.1052 19.625C30.1001 19.628 30.095 19.6309 30.0899 19.634L30.6042 20.4916ZM30.3975 20.6091L29.9353 19.7223C29.5197 19.939 29.3103 20.4152 29.4316 20.8679L30.3975 20.6091ZM30.9175 20.5214C31.0724 20.4775 31.1774 20.4646 31.241 20.4635C31.3028 20.4624 31.3075 20.4727 31.2804 20.4611L32.0694 18.6233C31.5076 18.3821 30.8986 18.4477 30.3711 18.5975L30.9175 20.5214ZM31.2979 20.4684C31.2899 20.4651 31.2762 20.4584 31.2602 20.4467C31.2441 20.4349 31.2304 20.4216 31.22 20.4088C31.1985 20.3827 31.2048 20.3766 31.2167 20.4207L33.1485 19.9031C32.9993 19.3462 32.6462 18.8578 32.0519 18.6159L31.2979 20.4684ZM31.2167 20.4207C31.2396 20.5065 31.2294 20.547 31.2092 20.5894L33.015 21.4492C33.2509 20.9537 33.2877 20.4226 33.1485 19.9031L31.2167 20.4207ZM31.2081 20.5917C31.162 20.6892 31.1004 20.761 31.0102 20.8214L32.1243 22.4824C32.5139 22.221 32.8155 21.871 33.0161 21.4469L31.2081 20.5917ZM31.0527 22.5093C31.2569 22.6319 31.4409 22.759 31.6059 22.8899L32.8489 21.3231C32.6108 21.1342 32.3546 20.9582 32.0819 20.7945L31.0527 22.5093ZM31.6221 22.9025C31.6555 22.9279 31.6663 22.943 31.667 22.944C31.6674 22.9446 31.6664 22.9432 31.6649 22.94C31.6633 22.9367 31.6622 22.9335 31.6616 22.9311L33.5934 22.4134C33.4688 21.9485 33.189 21.5815 32.8328 21.3106L31.6221 22.9025ZM31.6616 22.9311C31.6846 23.017 31.6784 23.0588 31.6754 23.0733C31.6726 23.0863 31.6642 23.1171 31.6196 23.1701L33.1499 24.4579C33.6467 23.8675 33.7899 23.1468 33.5934 22.4134L31.6616 22.9311ZM31.6279 23.1604C31.5288 23.2751 31.2959 23.4432 30.7895 23.5789L31.3071 25.5107C32.0242 25.3186 32.6823 24.9994 33.1416 24.4676L31.6279 23.1604ZM30.7895 23.5789C30.2847 23.7141 30.0565 23.664 29.9847 23.6333L29.1965 25.4714C29.8577 25.7549 30.6013 25.6998 31.3071 25.5107L30.7895 23.5789ZM29.9966 23.6385C29.9026 23.5967 29.8699 23.5649 29.866 23.5609C29.8645 23.5593 29.868 23.5628 29.8729 23.5713C29.8778 23.5799 29.881 23.5883 29.8825 23.5941L27.9507 24.1118C28.1313 24.7859 28.6259 25.218 29.1846 25.4662L29.9966 23.6385ZM29.8825 23.5941C29.8431 23.4468 29.847 23.329 29.8771 23.2208L27.9501 22.6853C27.8186 23.1587 27.8245 23.6409 27.9507 24.1118L29.8825 23.5941ZM29.8719 23.2389C29.8942 23.1639 29.9033 23.1724 29.8693 23.2165C29.8268 23.2717 29.7273 23.3666 29.5641 23.4103L29.0465 21.4784C28.3536 21.6641 28.0715 22.2777 27.9553 22.6672L29.8719 23.2389ZM29.5641 23.4103C29.4958 23.4286 29.3761 23.4467 29.2285 23.4138C29.0735 23.3793 28.9457 23.3013 28.8546 23.211L30.2624 21.7905C29.9014 21.4326 29.4308 21.3754 29.0465 21.4784L29.5641 23.4103ZM28.8826 23.2377C28.8466 23.2046 28.8323 23.1848 28.8487 23.2047C28.8596 23.2181 28.879 23.2427 28.9082 23.2822C28.9665 23.3609 29.047 23.4756 29.152 23.631L30.8089 22.5109C30.6967 22.3449 30.5983 22.2038 30.5159 22.0925C30.4511 22.0049 30.3472 21.8672 30.2345 21.7638L28.8826 23.2377ZM29.1543 23.6343C29.3167 23.8725 29.5228 24.0633 29.751 24.2136L30.851 22.5433C30.811 22.517 30.8034 22.5028 30.8067 22.5076L29.1543 23.6343ZM29.7573 24.2177C30.3941 24.6303 31.1324 24.6154 31.7961 24.4376L31.2784 22.5058C31.0996 22.5537 30.9835 22.5597 30.917 22.5547C30.8851 22.5523 30.8664 22.5475 30.8574 22.5447C30.849 22.5419 30.8457 22.5399 30.8447 22.5392L29.7573 24.2177ZM32.3804 22.934C32.1551 22.5807 31.858 22.2899 31.4923 22.0787L30.4923 23.8108C30.5675 23.8542 30.6337 23.9147 30.6941 24.0094L32.3804 22.934ZM31.524 22.0978C31.2982 21.9561 31.0736 21.8207 30.8502 21.6917L29.8502 23.4238C30.0514 23.5399 30.2549 23.6626 30.4606 23.7917L31.524 22.0978ZM30.8502 21.6917C30.6881 21.5981 30.5425 21.4954 30.4118 21.3841L29.1154 22.907C29.3423 23.1002 29.5878 23.2722 29.8502 23.4238L30.8502 21.6917ZM30.4237 21.3944C30.4075 21.3801 30.3789 21.3509 30.3551 21.2623L28.4233 21.78C28.5376 22.2066 28.7586 22.5936 29.1034 22.8967L30.4237 21.3944ZM30.3551 21.2623C30.3056 21.0773 30.3309 20.9613 30.4252 20.8276L28.7908 19.6749C28.3449 20.3071 28.2244 21.0377 28.4233 21.78L30.3551 21.2623ZM30.4078 20.8516C30.528 20.6914 30.6799 20.5852 30.9031 20.5254L30.3854 18.5936C29.7457 18.765 29.2068 19.12 28.8082 19.651L30.4078 20.8516ZM31.968 21.8252C32.0799 21.6141 32.1785 21.391 32.2394 21.1654C32.2974 20.9503 32.3443 20.6493 32.2582 20.328L30.3263 20.8456C30.3045 20.7643 30.3044 20.702 30.3061 20.6717C30.3079 20.6414 30.3121 20.6308 30.3085 20.6443C30.305 20.6572 30.2965 20.6843 30.2784 20.7274C30.2605 20.7702 30.2353 20.8235 30.2009 20.8884L31.968 21.8252ZM32.2582 20.328C32.1643 19.9778 31.9386 19.7073 31.6509 19.5412L30.6509 21.2733C30.5901 21.2381 30.5191 21.1832 30.4555 21.1023C30.3911 21.0205 30.3492 20.9311 30.3263 20.8456L32.2582 20.328ZM31.7435 19.6017C31.3701 19.3271 30.9506 19.3221 30.6344 19.4068L31.1521 21.3387C31.1046 21.3514 31.0167 21.3671 30.9023 21.3518C30.7814 21.3357 30.6614 21.2886 30.5584 21.2128L31.7435 19.6017ZM30.6344 19.4068C30.4499 19.4563 30.2726 19.5287 30.1052 19.625L31.1031 21.3583C31.1151 21.3513 31.1305 21.3445 31.1521 21.3387L30.6344 19.4068ZM30.0899 19.634C30.0152 19.6788 29.9652 19.7068 29.9353 19.7223L30.8597 21.4959C30.9389 21.4546 31.0266 21.4043 31.1184 21.3493L30.0899 19.634ZM29.4316 20.8679C29.5971 21.4855 30.0973 21.9093 30.5414 22.1965L31.6275 20.5171C31.4775 20.4201 31.395 20.3467 31.3548 20.303C31.3143 20.2589 31.3429 20.2735 31.3634 20.3503L29.4316 20.8679Z" fill="#011627" mask="url(#path-3-outside-1_95_80)"/>
</g>
<defs>
<filter id="filter0_ii_95_80" x="0" y="-16" width="40" height="56" filterUnits="userSpaceOnUse" color-interpolation-filters="sRGB">
<feFlood flood-opacity="0" result="BackgroundImageFix"/>
<feBlend mode="normal" in="SourceGraphic" in2="BackgroundImageFix" result="shape"/>
<feColorMatrix in="SourceAlpha" type="matrix" values="0 0 0 0 0 0 0 0 0 0 0 0 0 0 0 0 0 0 127 0" result="hardAlpha"/>
<feOffset dy="-16"/>
<feGaussianBlur stdDeviation="8.7"/>
<feComposite in2="hardAlpha" operator="arithmetic" k2="-1" k3="1"/>
<feColorMatrix type="matrix" values="0 0 0 0 0.215686 0 0 0 0 0.447059 0 0 0 0 1 0 0 0 1 0"/>
<feBlend mode="normal" in2="shape" result="effect1_innerShadow_95_80"/>
<feColorMatrix in="SourceAlpha" type="matrix" values="0 0 0 0 0 0 0 0 0 0 0 0 0 0 0 0 0 0 127 0" result="hardAlpha"/>
<feOffset dy="-4"/>
<feGaussianBlur stdDeviation="2.6"/>
<feComposite in2="hardAlpha" operator="arithmetic" k2="-1" k3="1"/>
<feColorMatrix type="matrix" values="0 0 0 0 0 0 0 0 0 0 0 0 0 0 0 0 0 0 0.44 0"/>
<feBlend mode="normal" in2="effect1_innerShadow_95_80" result="effect2_innerShadow_95_80"/>
</filter>
<filter id="filter1_di_95_80" x="2.21161" y="13.4845" width="37.8792" height="26.9081" filterUnits="userSpaceOnUse" color-interpolation-filters="sRGB">
<feFlood flood-opacity="0" result="BackgroundImageFix"/>
<feColorMatrix in="SourceAlpha" type="matrix" values="0 0 0 0 0 0 0 0 0 0 0 0 0 0 0 0 0 0 127 0" result="hardAlpha"/>
<feOffset dx="1" dy="2"/>
<feGaussianBlur stdDeviation="2.6"/>
<feComposite in2="hardAlpha" operator="out"/>
<feColorMatrix type="matrix" values="0 0 0 0 0 0 0 0 0 0 0 0 0 0 0 0 0 0 0.25 0"/>
<feBlend mode="normal" in2="BackgroundImageFix" result="effect1_dropShadow_95_80"/>
<feBlend mode="normal" in="SourceGraphic" in2="effect1_dropShadow_95_80" result="shape"/>
<feColorMatrix in="SourceAlpha" type="matrix" values="0 0 0 0 0 0 0 0 0 0 0 0 0 0 0 0 0 0 127 0" result="hardAlpha"/>
<feOffset dx="-1" dy="-2"/>
<feGaussianBlur stdDeviation="2"/>
<feComposite in2="hardAlpha" operator="arithmetic" k2="-1" k3="1"/>
<feColorMatrix type="matrix" values="0 0 0 0 0 0 0 0 0 0.65098 0 0 0 0 0.984314 0 0 0 1 0"/>
<feBlend mode="normal" in2="shape" result="effect2_innerShadow_95_80"/>
</filter>
</defs>
</svg>
