<svg width="215" height="215" viewBox="0 0 215 215" fill="none" xmlns="http://www.w3.org/2000/svg">
<path fill-rule="evenodd" clip-rule="evenodd" d="M135.525 36.3773C122.391 37.2093 113.324 41.0734 105.931 48.9902C99.9425 55.4023 97.4024 61.0935 97.0166 68.9633C96.3473 82.6132 102.224 95.1661 113.135 103.394L116.046 105.589L114.091 107.513C112.584 108.996 111.884 110.048 111.043 112.097C110.443 113.56 109.464 115.939 108.869 117.383C106.757 122.502 103.362 126.599 99.6779 128.474C99.0041 128.817 96.2601 129.726 93.5803 130.494C87.7096 132.177 84.8647 133.543 82.9205 135.612C82.1183 136.466 81.4616 136.997 81.4616 136.791C81.4616 135.604 79.2061 130.442 78.1464 129.204C76.3378 127.091 74.9034 126.528 68.86 125.557C65.8795 125.079 55.8718 123.392 46.6211 121.809C20.8652 117.402 20.9352 117.411 20.0873 118.259C19.2567 119.089 19.7867 120.741 25.5242 135.201C35.5298 160.417 37.9566 166.269 38.5377 166.58C40.509 167.635 93.2333 178.344 94.284 177.903C94.689 177.733 102.357 175.652 111.325 173.279C120.293 170.905 128.115 168.809 128.709 168.62C130.763 167.966 130.304 165.703 127.965 164.946C110.366 159.255 99.3473 155.299 89.6998 151.21L85.7523 149.536L85.1406 147.891C84.3807 145.847 84.3793 145.848 86.4611 146.844C90.0217 148.548 97.306 148.855 103.481 147.56L106.106 147.01L122.017 148.888C152.834 152.524 150.091 152.103 151.648 153.435C154.272 155.678 158.727 156.19 162.211 154.649L163.762 153.963L178.134 155.819C194.487 157.931 194.522 157.932 194.667 156.446C194.839 154.694 194.106 154.383 187.909 153.574C184.815 153.171 182.183 152.779 182.06 152.703C181.938 152.627 182.032 150.893 182.27 148.85C183.319 139.84 182.747 126.726 181.008 119.916C180.325 117.24 180.323 117.11 180.913 115.359C182.331 111.155 181.444 103.835 179.281 101.877C178.673 101.327 178.709 101.231 180.227 99.3666C187.927 89.9143 185.853 66.5485 176.135 53.2579C168.078 42.2377 151.538 35.3629 135.525 36.3773ZM133.122 40.1569C119.99 41.7702 111.759 46.3636 104.983 55.8595C97.3578 66.5451 98.645 82.6366 108.066 94.4062C118.336 107.236 141.922 114.575 158.403 110.068C160.203 109.575 160.496 109.342 162.491 106.809C166.502 101.716 169.918 99.3213 173.177 99.3144C175.351 99.3099 178.354 96.6463 179.787 93.4526C183.924 84.2355 181.199 65.449 174.347 55.9398C168.767 48.1963 158.686 42.3386 147.736 40.4775C144.767 39.9729 136.157 39.7841 133.122 40.1569ZM112.935 71.3194C111.288 72.966 112.793 74.9377 115.701 74.9439C118.097 74.9487 120.779 75.6211 123.444 76.885C126.059 78.1255 127.227 77.4884 126.638 75.1429C126.084 72.9334 114.541 69.713 112.935 71.3194ZM143.764 74.8707C142.517 75.0293 142.146 75.5195 142.413 76.656C142.8 78.3016 143.511 78.7152 145.961 78.7197C148.513 78.7241 151.198 79.3468 153.227 80.4044C155.604 81.6435 156.635 81.2811 156.635 79.2071C156.635 77.0405 148.433 74.2773 143.764 74.8707ZM125.319 86.6307C122.174 88.291 122.182 92.8162 125.335 95.5842C129.684 99.403 136.608 99.5087 137.556 95.771C138.066 93.7608 137.345 92.0854 134.905 89.6088C131.411 86.0633 128.252 85.0819 125.319 86.6307ZM156.289 86.5878C151.19 88.139 146.186 95.4555 148.681 97.7131C149.933 98.8465 150.701 98.4532 151.307 96.3668C152.291 92.9844 155.351 90.3993 159.13 89.7588C160.396 89.5443 160.597 89.3888 160.694 88.5461C160.915 86.6311 158.978 85.7702 156.289 86.5878ZM127.115 89.7986C124.945 90.8909 126.442 93.5082 129.87 94.6152C134.634 96.1537 136.014 94.0663 132.227 91.0498C130.133 89.3816 128.659 89.0212 127.115 89.7986ZM172.423 103.064C165.69 105.112 154.15 124.04 151.673 137.097C150.917 141.082 150.977 146.797 151.794 148.595C153.917 153.27 160.103 153.148 164.771 148.338C168.722 144.268 171.182 138.148 172.594 128.88C173.638 122.023 174.553 119.015 176.502 116.023C180.854 109.343 178.313 101.272 172.423 103.064ZM117.938 109.299C115.973 110.271 114.68 112.147 113.004 116.457C110.62 122.591 109.049 125.284 106.183 128.156C103.127 131.218 101.541 132.042 95.3635 133.779C87.7744 135.913 84.5509 137.863 84.5509 140.32C84.5509 147.418 107.852 145.678 116.398 137.942C119.005 135.582 119.027 135.514 119.22 129.346C119.386 124.019 119.414 123.851 120.143 123.747C120.561 123.687 121.207 123.953 121.602 124.348C122.488 125.234 122.596 134.303 121.799 141.004C121.531 143.263 121.356 145.155 121.41 145.21C121.613 145.412 148.045 148.519 148.205 148.359C148.297 148.267 148.208 147.132 148.006 145.836C147.313 141.384 148.682 133.138 151.143 126.942C152.245 124.169 155.992 116.503 156.831 115.304C157.47 114.393 157.454 113.947 156.792 114.201C156.501 114.312 154.496 114.576 152.338 114.787C144.174 115.584 132.601 113.53 124.035 109.764C120.906 108.388 119.929 108.314 117.938 109.299ZM177.639 121.353C176.781 123.444 176.189 126.185 175.506 131.234C174.457 138.984 172.651 143.972 169.201 148.655C168.331 149.836 167.619 150.851 167.619 150.911C167.619 151.128 178.248 152.298 178.444 152.103C178.94 151.607 179.612 143.176 179.622 137.34C179.633 130.762 179.23 125.545 178.457 122.27C178.031 120.464 178.012 120.443 177.639 121.353ZM23.5364 122.005C23.6435 122.267 24.4515 124.334 25.3326 126.6C30.0057 138.617 40.0048 163.507 40.2104 163.634C40.7304 163.956 90.4223 174.246 90.5562 174.06C90.883 173.606 76.8822 132.656 76.0443 131.614C74.7262 129.975 74.3373 129.873 60.8662 127.648C53.3694 126.407 45.875 125.151 38.3829 123.881C24.6235 121.543 23.2779 121.373 23.5364 122.005ZM117.495 141.792C117.028 142.151 115.975 142.84 115.155 143.322C113.431 144.335 113.553 144.505 116.12 144.671L117.997 144.792L118.264 143.248C118.614 141.214 118.509 141.014 117.495 141.792ZM87.3158 154.281C87.3261 154.537 88.7647 159.072 90.5123 164.358C93.2322 172.585 93.7831 173.961 94.3375 173.91C95.4469 173.809 121.621 166.771 121.622 166.574C121.622 166.471 120.271 165.951 118.619 165.418C112.111 163.316 102.565 159.868 95.5351 157.08C92.9325 156.047 90.3295 155.015 87.726 153.984C87.4902 153.891 87.3055 154.025 87.3158 154.281Z" fill="black" stroke="black" stroke-width="1.23934"/>
</svg>
