<svg width="64" height="64" viewBox="0 0 64 64" fill="none" xmlns="http://www.w3.org/2000/svg">
<rect width="39.2393" height="52.8767" rx="4" transform="matrix(0.967898 -0.251345 0.23281 0.972522 0 9.86255)" fill="#EDF2F4" fill-opacity="0.75"/>
<rect width="39.6306" height="52.5019" rx="4" transform="matrix(0.966652 -0.25649 0.228198 0.973708 0 10.1649)" fill="white" fill-opacity="0.25"/>
<line y1="-0.05" x2="31.3931" y2="-0.05" transform="matrix(0.967845 -0.251331 0.23276 0.972485 6.63876 20.7434)" stroke="#000814" stroke-width="0.1"/>
<line y1="-0.05" x2="31.3931" y2="-0.05" transform="matrix(0.967845 -0.251331 0.23276 0.972485 5.69183 16.7877)" stroke="#000814" stroke-width="0.1"/>
<line y1="-0.05" x2="31.3931" y2="-0.05" transform="matrix(0.967845 -0.251331 0.23276 0.972485 7.58572 24.6991)" stroke="#000814" stroke-width="0.1"/>
<line y1="-0.05" x2="31.3931" y2="-0.05" transform="matrix(0.967845 -0.251331 0.23276 0.972485 8.53265 28.6548)" stroke="#000814" stroke-width="0.1"/>
<line y1="-0.05" x2="31.3931" y2="-0.05" transform="matrix(0.967845 -0.251331 0.23276 0.972485 9.47958 32.6105)" stroke="#000814" stroke-width="0.1"/>
<line y1="-0.05" x2="31.3931" y2="-0.05" transform="matrix(0.967845 -0.251331 0.23276 0.972485 10.4265 36.566)" stroke="#000814" stroke-width="0.1"/>
<line y1="-0.05" x2="31.3931" y2="-0.05" transform="matrix(0.967845 -0.251331 0.23276 0.972485 11.3735 40.5217)" stroke="#000814" stroke-width="0.1"/>
<line y1="-0.05" x2="31.3931" y2="-0.05" transform="matrix(0.967845 -0.251331 0.23276 0.972485 12.3204 44.4774)" stroke="#000814" stroke-width="0.1"/>
<line y1="-0.05" x2="31.3931" y2="-0.05" transform="matrix(0.967845 -0.251331 0.23276 0.972485 13.2673 48.4331)" stroke="#000814" stroke-width="0.1"/>
<line y1="-0.05" x2="31.3931" y2="-0.05" transform="matrix(0.967845 -0.251331 0.23276 0.972485 14.2143 52.3888)" stroke="#000814" stroke-width="0.1"/>
<rect width="39.1803" height="52.9505" rx="4" transform="matrix(0.987509 0.15756 -0.145519 0.989356 25.3091 5.43982)" fill="#EDF2F4" fill-opacity="0.1"/>
<line y1="-0.05" x2="31.3455" y2="-0.05" transform="matrix(0.987471 0.157554 -0.145467 0.989329 27.4 18.1464)" stroke="#000814" stroke-width="0.1"/>
<line y1="-0.05" x2="31.3455" y2="-0.05" transform="matrix(0.987471 0.157554 -0.145467 0.989329 27.9927 14.1167)" stroke="#000814" stroke-width="0.1"/>
<line y1="-0.05" x2="31.3455" y2="-0.05" transform="matrix(0.987471 0.157554 -0.145467 0.989329 26.8073 22.1761)" stroke="#000814" stroke-width="0.1"/>
<line y1="-0.05" x2="31.3455" y2="-0.05" transform="matrix(0.987471 0.157554 -0.145467 0.989329 26.2146 26.2059)" stroke="#000814" stroke-width="0.1"/>
<line y1="-0.05" x2="31.3455" y2="-0.05" transform="matrix(0.987471 0.157554 -0.145467 0.989329 25.6219 30.2357)" stroke="#000814" stroke-width="0.1"/>
<line y1="-0.05" x2="31.3455" y2="-0.05" transform="matrix(0.987471 0.157554 -0.145467 0.989329 25.0291 34.2655)" stroke="#000814" stroke-width="0.1"/>
<line y1="-0.05" x2="31.3455" y2="-0.05" transform="matrix(0.987471 0.157554 -0.145467 0.989329 24.4364 38.2952)" stroke="#000814" stroke-width="0.1"/>
<line y1="-0.05" x2="31.3455" y2="-0.05" transform="matrix(0.987471 0.157554 -0.145467 0.989329 23.8437 42.325)" stroke="#000814" stroke-width="0.1"/>
<line y1="-0.05" x2="31.3455" y2="-0.05" transform="matrix(0.987471 0.157554 -0.145467 0.989329 23.251 46.3547)" stroke="#000814" stroke-width="0.1"/>
<line y1="-0.05" x2="31.3455" y2="-0.05" transform="matrix(0.987471 0.157554 -0.145467 0.989329 22.6583 50.3845)" stroke="#000814" stroke-width="0.1"/>
</svg>
